<svg width="18" height="18" viewBox="0 0 18 18" fill="none" xmlns="http://www.w3.org/2000/svg">
<g clip-path="url(#clip0_1_2972)">
<path d="M8.78432 14.365C5.76032 14.365 3.30888 11.9135 3.30888 8.88951C3.30888 5.8655 5.76032 3.41406 8.78432 3.41406C11.8083 3.41406 14.2598 5.8655 14.2598 8.88951C14.2598 11.9135 11.8083 14.365 8.78432 14.365Z" fill="white"/>
<path d="M8.77396 0.541504C10.4272 0.541504 12.0433 1.03174 13.4179 1.95022C14.7925 2.86871 15.8639 4.17418 16.4965 5.70156C17.1292 7.22894 17.2947 8.90963 16.9722 10.5311C16.6497 12.1525 15.8536 13.6419 14.6846 14.811C13.5156 15.98 12.0261 16.7761 10.4047 17.0986C8.78323 17.4211 7.10255 17.2556 5.57517 16.6229C4.04779 15.9903 2.74231 14.9189 1.82383 13.5443C0.90535 12.1697 0.415112 10.5536 0.415112 8.90035C0.41592 6.6837 1.29684 4.55806 2.86425 2.99065C4.43167 1.42323 6.5573 0.542313 8.77396 0.541504ZM4.59458 9.73621H7.9381V13.0797H9.60982V9.73621H12.9534V8.06449H9.60982V4.72088H7.93801V8.06449H4.59449L4.59458 9.73621Z" fill="url(#paint0_linear_1_2972)"/>
</g>
<defs>
<linearGradient id="paint0_linear_1_2972" x1="6.46797" y1="-4.95584" x2="8.43027" y2="23.5497" gradientUnits="userSpaceOnUse">
<stop stop-color="#DF2908"/>
<stop offset="1" stop-color="#F58600"/>
</linearGradient>
<clipPath id="clip0_1_2972">
<rect width="16.7177" height="16.7177" fill="white" transform="matrix(-1 0 0 1 17.1328 0.541504)"/>
</clipPath>
</defs>
</svg>
