<svg width="26" height="26" viewBox="0 0 26 26" fill="none" xmlns="http://www.w3.org/2000/svg">
<g clip-path="url(#clip0_1_15253)">
<path d="M23.3985 0H7.79849C6.36459 0 5.19849 1.1661 5.19849 2.6V18.2C5.19849 19.6339 6.36459 20.8 7.79849 20.8H23.3985C24.8324 20.8 25.9985 19.6339 25.9985 18.2V2.6C25.9985 1.1661 24.8324 0 23.3985 0ZM7.79849 18.2V2.6H23.3985L23.4011 18.2H7.79849Z" fill="white"/>
<path d="M2.59854 7.80005H-0.00146484V23.4C-0.00146484 24.8339 1.16464 26 2.59854 26H18.1985V23.4H2.59854V7.80005ZM14.2114 12.3747L11.9676 10.1309L10.1294 11.9691L14.3856 16.2253L21.7982 7.33335L19.7988 5.66675L14.2114 12.3747Z" fill="white"/>
</g>
<defs>
<clipPath id="clip0_1_15253">
<rect width="26" height="26" fill="white" transform="translate(-0.00146484)"/>
</clipPath>
</defs>
</svg>
