<svg width="9" height="14" viewBox="0 0 9 14" fill="none" xmlns="http://www.w3.org/2000/svg">
<g clip-path="url(#clip0_1_3416)">
<path d="M2.8372 8.28499C2.8372 6.20126 5.84771 4.82585 5.84771 2.55257C5.84771 1.22295 4.87377 0.0677634 4.72747 0C4.73909 0.0938614 4.74466 0.188181 4.74466 0.2825C4.74466 2.88315 0.53125 4.62805 0.53125 7.86696C0.53125 9.27305 1.45363 10.1036 2.43592 10.925C4.30065 12.2436 4.67313 12.941 4.67313 13.3704C4.67313 13.6557 4.53566 13.8503 4.53566 14C4.91093 13.5284 5.03401 13.0994 5.03679 12.6896C5.03679 11.8535 4.41537 11.0999 3.77073 10.2469C3.31232 9.61736 2.8372 9.04412 2.8372 8.28453V8.28499ZM8.71749 7.18383C8.37101 5.29745 6.48353 3.67113 6.00515 3.48752L6.11987 3.69081C6.18814 3.84282 6.22158 4.00765 6.2174 4.17386C6.2174 5.43618 4.66477 7.31386 4.59604 7.46908C4.5352 7.6101 4.50361 7.76211 4.50454 7.91503C4.50454 8.48278 4.93972 9.10364 5.01728 9.10364C5.08602 9.10364 6.63865 7.53913 6.68138 6.62707C6.84904 6.91415 6.93868 7.23877 6.94193 7.57027C6.94193 8.73369 5.7446 10.3064 5.7446 10.3064C5.7446 10.6338 6.65815 11.8087 6.76126 11.8087C6.79006 11.8087 6.82443 11.7693 6.85276 11.7409C7.93815 10.6311 8.78065 9.34081 8.78065 7.87795C8.78065 7.6449 8.75929 7.41276 8.71749 7.18337V7.18383Z" fill="url(#paint0_linear_1_3416)"/>
</g>
<defs>
<linearGradient id="paint0_linear_1_3416" x1="0.53125" y1="7.00023" x2="8.78065" y2="7.00023" gradientUnits="userSpaceOnUse">
<stop stop-color="#F05926"/>
<stop offset="1" stop-color="#FAB03B"/>
</linearGradient>
<clipPath id="clip0_1_3416">
<rect width="8.2494" height="14" fill="white" transform="translate(0.53125)"/>
</clipPath>
</defs>
</svg>
