<svg xmlns="http://www.w3.org/2000/svg" width="23" height="24" viewBox="0 0 23 24" fill="none">
<path d="M3.15569 7.11955C4.89853 7.11955 6.31138 5.73172 6.31138 4.01974C6.31138 2.30776 4.89853 0.919922 3.15569 0.919922C1.41285 0.919922 0 2.30776 0 4.01974C0 5.73172 1.41285 7.11955 3.15569 7.11955Z" fill="white"/>
<path d="M3.15569 15.0903C4.89853 15.0903 6.31138 13.7024 6.31138 11.9904C6.31138 10.2785 4.89853 8.89062 3.15569 8.89062C1.41285 8.89062 0 10.2785 0 11.9904C0 13.7024 1.41285 15.0903 3.15569 15.0903Z" fill="white"/>
<path d="M3.15569 23.0614C4.89853 23.0614 6.31138 21.6736 6.31138 19.9616C6.31138 18.2497 4.89853 16.8618 3.15569 16.8618C1.41285 16.8618 0 18.2497 0 19.9616C0 21.6736 1.41285 23.0614 3.15569 23.0614Z" fill="white"/>
<path d="M11.2709 7.11955C13.0138 7.11955 14.4266 5.73172 14.4266 4.01974C14.4266 2.30776 13.0138 0.919922 11.2709 0.919922C9.52808 0.919922 8.11523 2.30776 8.11523 4.01974C8.11523 5.73172 9.52808 7.11955 11.2709 7.11955Z" fill="white"/>
<path d="M11.2709 15.0903C13.0138 15.0903 14.4266 13.7024 14.4266 11.9904C14.4266 10.2785 13.0138 8.89062 11.2709 8.89062C9.52808 8.89062 8.11523 10.2785 8.11523 11.9904C8.11523 13.7024 9.52808 15.0903 11.2709 15.0903Z" fill="white"/>
<path d="M11.2709 23.0614C13.0138 23.0614 14.4266 21.6736 14.4266 19.9616C14.4266 18.2497 13.0138 16.8618 11.2709 16.8618C9.52808 16.8618 8.11523 18.2497 8.11523 19.9616C8.11523 21.6736 9.52808 23.0614 11.2709 23.0614Z" fill="white"/>
<path d="M19.3842 7.11955C21.127 7.11955 22.5399 5.73172 22.5399 4.01974C22.5399 2.30776 21.127 0.919922 19.3842 0.919922C17.6414 0.919922 16.2285 2.30776 16.2285 4.01974C16.2285 5.73172 17.6414 7.11955 19.3842 7.11955Z" fill="white"/>
<path d="M19.3842 15.0903C21.127 15.0903 22.5399 13.7024 22.5399 11.9904C22.5399 10.2785 21.127 8.89062 19.3842 8.89062C17.6414 8.89062 16.2285 10.2785 16.2285 11.9904C16.2285 13.7024 17.6414 15.0903 19.3842 15.0903Z" fill="white"/>
<path d="M19.3842 23.0614C21.127 23.0614 22.5399 21.6736 22.5399 19.9616C22.5399 18.2497 21.127 16.8618 19.3842 16.8618C17.6414 16.8618 16.2285 18.2497 16.2285 19.9616C16.2285 21.6736 17.6414 23.0614 19.3842 23.0614Z" fill="white"/>
<path d="M19.3837 21.2903C20.1306 21.2903 20.7361 20.6955 20.7361 19.9618C20.7361 19.2281 20.1306 18.6333 19.3837 18.6333C18.6368 18.6333 18.0312 19.2281 18.0312 19.9618C18.0312 20.6955 18.6368 21.2903 19.3837 21.2903Z" fill="url(#paint0_linear_1_3355)"/>
<defs>
<linearGradient id="paint0_linear_1_3355" x1="19.3837" y1="18.6333" x2="19.3837" y2="21.2903" gradientUnits="userSpaceOnUse">
<stop stop-color="#DF2908"/>
<stop offset="1" stop-color="#F58600"/>
</linearGradient>
</defs>
</svg>