<svg width="34" height="33" viewBox="0 0 34 33" fill="none" xmlns="http://www.w3.org/2000/svg">
<path d="M17.1032 32.9171C26.1974 32.9171 33.5698 25.6203 33.5698 16.6192C33.5698 7.61812 26.1974 0.321289 17.1032 0.321289C8.00903 0.321289 0.636719 7.61812 0.636719 16.6192C0.636719 25.6203 8.00903 32.9171 17.1032 32.9171Z" fill="url(#paint0_linear_1_17464)"/>
<g clip-path="url(#clip0_1_17464)">
<path d="M16.9978 6.00024C10.9281 6.00024 6.00159 10.9267 6.00159 16.9965C6.00159 23.0662 10.9281 27.9927 16.9978 27.9927C23.0676 27.9927 27.9941 23.0662 27.9941 16.9965C28.0016 10.9267 23.0826 6.00024 17.0053 6.00024H16.9978ZM24.5794 19.9599C24.1506 19.8245 23.3233 19.7794 23.0224 19.4108C22.872 19.2228 22.9698 18.5308 22.9698 18.5308C23.5339 18.5609 24.098 18.4556 24.6095 18.2074C24.8125 18.0871 24.7223 18.0645 24.6095 17.884C24.0303 16.9137 24.2936 15.6878 24.2635 14.6273C24.3312 13.7172 23.9325 12.8296 23.203 12.2806C22.6915 12.0173 22.1199 11.897 21.5407 11.9196C21.0819 11.912 20.6306 11.9797 20.2019 12.1377C17.9606 13.0402 19.2843 16.0112 18.5171 17.711C18.3818 17.9968 18.1937 18.0946 18.5247 18.2676C19.006 18.4782 19.525 18.591 20.0515 18.5985C20.0515 18.5985 20.0665 19.2679 20.0515 19.3356C19.9913 19.5914 19.4272 19.7719 19.2166 19.832C18.9233 19.9148 18.63 20.0126 18.3517 20.1329C18.2464 20.178 18.1937 20.2984 18.2389 20.4112C18.2689 20.4789 18.3216 20.524 18.3968 20.539C18.5999 20.5767 18.803 20.6218 19.006 20.6895C19.9161 20.9226 20.751 21.3814 21.4354 22.0132C22.0672 22.645 22.4433 23.4799 22.4959 24.3749C22.5185 24.6156 22.4057 24.8488 22.2026 24.9842L21.9018 25.1722C21.8265 25.2173 21.7363 25.1873 21.6987 25.1196C21.6836 25.097 21.6761 25.0744 21.6761 25.0443C21.6912 23.4949 20.7134 22.111 19.2467 21.6071C18.5322 21.3589 17.7575 21.3438 17.0505 21.0956C16.8324 21.0204 16.4036 20.9302 16.3134 20.682C16.2457 20.4262 16.2081 20.163 16.2156 19.8997C16.2081 19.6967 16.2006 19.5011 16.2006 19.298C16.2006 19.1626 16.539 18.8843 16.6142 18.764C16.8549 18.245 16.9753 17.6809 16.9828 17.1093C17.4416 17.2372 17.5018 16.3873 17.5845 16.124C17.6447 15.9435 17.8477 15.0184 17.4491 14.8755C17.5695 14.6348 17.6447 14.3715 17.6748 14.1008C17.8101 13.4088 17.7951 12.7018 17.6146 12.0249C17.1483 10.6936 15.8847 9.81358 14.4782 9.83614C13.0491 9.7158 11.6953 10.5206 11.1161 11.8368C10.898 12.5137 10.8453 13.2283 10.9657 13.9278C10.9883 14.2587 11.071 14.5821 11.2139 14.883C10.8754 15.0334 10.9732 15.8156 11.0334 16.0112C11.1161 16.282 11.1913 17.2522 11.6727 17.1168C11.7028 17.5531 11.7705 17.9818 11.8758 18.403C11.966 18.6737 12.1089 18.9295 12.312 19.1401C12.4098 19.2454 12.4549 19.2604 12.4474 19.3958C12.4624 19.817 12.4324 20.2382 12.3496 20.6519C12.2443 21.0505 11.3643 21.2235 11.0033 21.2987C10.2512 21.3965 9.50654 21.5996 8.81458 21.9079C6.12945 17.3575 7.61116 11.5134 12.1315 8.82076C13.5756 7.9558 15.2303 7.497 16.9151 7.48195C19.4423 7.45939 21.8717 8.43717 23.6768 10.2047C26.4823 12.9575 27.3096 17.1469 25.7677 20.7572C25.4594 20.3811 25.0532 20.1028 24.5869 19.9524L24.5794 19.9599Z" fill="white"/>
</g>
<defs>
<linearGradient id="paint0_linear_1_17464" x1="21.6459" y1="-10.3973" x2="17.8587" y2="45.1876" gradientUnits="userSpaceOnUse">
<stop stop-color="#DF2908"/>
<stop offset="1" stop-color="#F58600"/>
</linearGradient>
<clipPath id="clip0_1_17464">
<rect width="22" height="22" fill="white" transform="translate(6.00159 6.00024)"/>
</clipPath>
</defs>
</svg>
