<svg width="34" height="33" viewBox="0 0 34 33" fill="none" xmlns="http://www.w3.org/2000/svg">
<path d="M16.6267 32.9171C25.7209 32.9171 33.0932 25.6203 33.0932 16.6192C33.0932 7.61812 25.7209 0.321289 16.6267 0.321289C7.53247 0.321289 0.160156 7.61812 0.160156 16.6192C0.160156 25.6203 7.53247 32.9171 16.6267 32.9171Z" fill="url(#paint0_linear_1_17447)"/>
<g clip-path="url(#clip0_1_17447)">
<path d="M24.9202 17.9865C24.1683 17.9625 23.4578 17.64 22.9452 17.0899C22.4159 16.5559 22.1231 15.8329 22.1311 15.0811C22.1352 16.6366 20.9101 17.9184 19.3542 17.9865C20.9101 18.0546 22.1352 19.3364 22.1311 20.8919C22.1171 20.1395 22.4112 19.4139 22.9452 18.8831C23.4572 18.333 24.1683 18.0106 24.9202 17.9865ZM23.5347 10.7137C22.0269 10.6423 20.7457 10.0561 19.6923 8.95591C18.639 7.8557 18.1124 6.55255 18.1124 5.03442C18.1124 6.55255 17.5857 7.8557 16.5324 8.95591C15.4791 10.0561 14.1985 10.6296 12.678 10.7137C13.6505 10.7518 14.5955 11.0442 15.4189 11.5622C16.241 12.0743 16.9207 12.7859 17.3939 13.6304C17.8711 14.481 18.1184 15.441 18.1117 16.4163C18.1117 14.8982 18.6384 13.583 19.6917 12.4828C20.745 11.3713 22.0255 10.7851 23.534 10.7137H23.5347ZM19.5607 23.5897C18.4579 23.5563 17.4146 23.0823 16.6641 22.2745C15.8888 21.4888 15.4624 20.4246 15.4791 19.3217C15.4964 20.4246 15.0694 21.4888 14.2941 22.2745C13.5041 23.0997 12.5464 23.5416 11.4095 23.5897C12.5464 23.6378 13.5041 24.0797 14.2941 24.9049C15.0694 25.6906 15.4958 26.7548 15.4791 27.8577C15.4617 26.7548 15.8888 25.6906 16.6641 24.9049C17.4193 24.1031 18.4592 23.6311 19.5607 23.5897ZM14.7512 16.5879C13.6144 16.5398 12.6566 16.0979 11.8666 15.2727C11.0767 14.4476 10.6937 13.4675 10.6937 12.3079C10.7111 13.4108 10.284 14.475 9.50871 15.2607C8.75815 16.0685 7.71486 16.5425 6.61209 16.5759C8.8965 16.6794 10.6944 18.56 10.6937 20.8439C10.6777 19.743 11.0994 18.6815 11.8666 17.8911C12.6566 17.0779 13.6144 16.636 14.7512 16.5879Z" fill="white"/>
</g>
<defs>
<linearGradient id="paint0_linear_1_17447" x1="21.1694" y1="-10.3973" x2="17.3821" y2="45.1876" gradientUnits="userSpaceOnUse">
<stop stop-color="#DF2908"/>
<stop offset="1" stop-color="#F58600"/>
</linearGradient>
<clipPath id="clip0_1_17447">
<rect width="18.3067" height="22.8232" fill="white" transform="matrix(-1 0 0 1 25.5982 5.03516)"/>
</clipPath>
</defs>
</svg>
