<svg width="33" height="33" viewBox="0 0 33 33" fill="none" xmlns="http://www.w3.org/2000/svg">
<path d="M16.4665 32.9171C25.5607 32.9171 32.933 25.6203 32.933 16.6192C32.933 7.61812 25.5607 0.321289 16.4665 0.321289C7.37231 0.321289 0 7.61812 0 16.6192C0 25.6203 7.37231 32.9171 16.4665 32.9171Z" fill="url(#paint0_linear_1_17472)"/>
<g clip-path="url(#clip0_1_17472)">
<path d="M23.0807 9.92617C23.0826 9.4092 22.6587 8.9895 22.1384 8.9895C22.042 8.9895 21.9456 9.00391 21.8528 9.03273L12.4021 11.7959C12.0091 11.9184 11.7399 12.2786 11.7399 12.6875V20.3322C11.4306 20.2583 11.1123 20.2187 10.7939 20.2169C9.22939 20.2169 7.95959 21.0545 7.95959 22.0884C7.95959 23.1224 9.22939 23.96 10.7957 23.96C12.362 23.96 13.6318 23.1224 13.6318 22.0884V15.2544L21.1924 13.0604V18.4589C20.8832 18.385 20.5648 18.3454 20.2464 18.3436C18.6801 18.3436 17.4103 19.1812 17.4103 20.2151C17.4103 21.249 18.6801 22.0866 20.2464 22.0866C21.8128 22.0866 23.0826 21.249 23.0826 20.2151V9.92437L23.0807 9.92617Z" fill="white"/>
</g>
<defs>
<linearGradient id="paint0_linear_1_17472" x1="21.0092" y1="-10.3973" x2="17.222" y2="45.1876" gradientUnits="userSpaceOnUse">
<stop stop-color="#DF2908"/>
<stop offset="1" stop-color="#F58600"/>
</linearGradient>
<clipPath id="clip0_1_17472">
<rect width="15.123" height="14.9723" fill="white" transform="translate(7.95959 8.9895)"/>
</clipPath>
</defs>
</svg>
