<svg width="123" height="34" viewBox="0 0 123 34" fill="none" xmlns="http://www.w3.org/2000/svg">
<path d="M39.4515 22.0019C39.4515 25.2635 37.4288 27.145 33.9001 27.145H31.1443V31.1469H28.0117V17.1396H33.9001C37.4288 17.1396 39.4515 18.9031 39.4515 22.0019ZM36.4773 22.1062C36.4773 20.5454 35.4862 19.7655 33.741 19.7655H31.1433V24.5076H33.741C35.4862 24.5035 36.4773 23.7057 36.4773 22.102V22.1062Z" fill="white"/>
<path d="M44.5857 17.1396V22.9864H50.8714V17.1396H54.004V31.1469H50.8714V25.6237H44.5857V31.1469H41.4531V17.1396H44.5857Z" fill="white"/>
<path d="M60.1909 17.1396V31.1469H57.0586V17.1396H60.1909Z" fill="white"/>
<path d="M66.397 17.1396V28.3853H72.3454V31.1469H63.2656V17.1396H66.397Z" fill="white"/>
<path d="M80.6543 19.781C79.5374 19.8058 78.4749 20.2709 77.6937 21.0769C76.9125 21.8828 76.4748 22.9655 76.4748 24.093C76.4748 25.2204 76.9125 26.303 77.6937 27.109C78.4749 27.9149 79.5374 28.3802 80.6543 28.405C82.0206 28.3432 83.312 27.7559 84.2629 26.7637L86.1072 28.7849C84.6331 30.3281 82.6192 31.2276 80.4962 31.2907C79.5467 31.3184 78.6019 31.1526 77.7174 30.8032C76.8329 30.4538 76.0273 29.928 75.3488 29.2571C74.6704 28.5863 74.133 27.7842 73.7688 26.8989C73.4045 26.0136 73.2208 25.0632 73.2288 24.1047C73.2368 23.1462 73.4362 22.1991 73.8152 21.3202C74.1942 20.4412 74.7446 19.6485 75.4342 18.9893C76.1238 18.33 76.9384 17.8179 77.8285 17.4836C78.7187 17.1492 79.6665 16.9995 80.6154 17.0434C82.6691 17.0697 84.6321 17.9022 86.088 19.3643L84.2629 21.6059C83.8192 21.0664 83.2696 20.6258 82.6485 20.3117C82.0274 19.9975 81.3481 19.8168 80.6543 19.781Z" fill="white"/>
<path d="M101.633 24.1432C101.535 26.0719 100.707 27.8889 99.3192 29.219C97.9319 30.5491 96.0915 31.2907 94.178 31.2907C92.2644 31.2907 90.4235 30.5491 89.0362 29.219C87.6488 27.8889 86.8208 26.0719 86.7227 24.1432C86.7227 20.0609 89.9297 17.0435 94.1785 17.0435C98.4272 17.0435 101.633 20.0807 101.633 24.1432ZM89.9348 24.1432C89.9271 25.2977 90.3739 26.408 91.1769 27.2303C91.98 28.0525 93.0734 28.5194 94.2174 28.5282C95.0729 28.536 95.9114 28.2875 96.6268 27.814C97.3423 27.3405 97.9024 26.6633 98.2362 25.8683C98.57 25.0733 98.6629 24.1963 98.5024 23.3481C98.3419 22.5 97.9356 21.7191 97.335 21.1041C96.7345 20.4892 95.9666 20.068 95.1286 19.8939C94.2906 19.7197 93.4201 19.8004 92.6277 20.1258C91.8352 20.4513 91.1563 21.0067 90.6769 21.7219C90.1974 22.437 89.9394 23.2797 89.9348 24.1432Z" fill="white"/>
<path d="M106.829 17.1396V31.1469H103.697V17.1396H106.829Z" fill="white"/>
<path d="M112.749 17.1396L119.492 26.1447V17.1396H122.474V31.1469H119.619L112.895 22.1616V31.1469H109.9V17.1396H112.749Z" fill="white"/>
<path d="M0 0.835681V33.0556C0.000540732 33.1409 0.0232631 33.2245 0.0658916 33.2981C0.10852 33.3717 0.169558 33.4327 0.242894 33.4749C0.31623 33.5172 0.399288 33.5393 0.483752 33.539C0.568216 33.5387 0.65112 33.5161 0.724162 33.4733L3.76461 31.7109C3.90488 31.6295 4.02139 31.5122 4.1024 31.3709C4.18341 31.2296 4.22605 31.0692 4.226 30.9059V8.21933C4.22611 8.07727 4.26324 7.93773 4.33364 7.81472C4.40405 7.6917 4.50527 7.58954 4.62715 7.51846C4.74903 7.44739 4.88729 7.40991 5.02805 7.40977C5.16882 7.40964 5.30714 7.44687 5.42915 7.51772L13.906 12.4572C14.0278 12.5284 14.1289 12.6306 14.1991 12.7537C14.2694 12.8767 14.3064 13.0163 14.3064 13.1583C14.3064 13.3003 14.2694 13.4399 14.1991 13.5629C14.1289 13.686 14.0278 13.7882 13.906 13.8594L6.74195 18.0357C6.61992 18.1068 6.51858 18.209 6.44812 18.3322C6.37766 18.4554 6.34056 18.5951 6.34056 18.7373V21.7891C6.33931 21.9309 6.37498 22.0706 6.44401 22.1942C6.55047 22.38 6.72562 22.5155 6.93102 22.5711C7.13641 22.6267 7.35528 22.5978 7.53956 22.4907L22.3487 13.8615C22.4705 13.7903 22.5716 13.6881 22.6418 13.565C22.7121 13.4419 22.7491 13.3024 22.7491 13.1604C22.7491 13.0184 22.7121 12.8788 22.6418 12.7558C22.5716 12.6327 22.4705 12.5305 22.3487 12.4593L1.20314 0.134067C1.08113 0.0632188 0.942812 0.025993 0.802048 0.0261234C0.661285 0.0262538 0.52303 0.0637359 0.40115 0.13481C0.27927 0.205885 0.178049 0.308053 0.107641 0.431067C0.0372323 0.554082 0.000111002 0.693618 0 0.835681H0Z" fill="url(#paint0_linear_1_3386)"/>
<path d="M16.921 25.1717C16.8315 25.1193 16.7572 25.0442 16.7055 24.9536C16.6538 24.8631 16.6266 24.7605 16.6266 24.656C16.6266 24.5516 16.6538 24.4488 16.7055 24.3583C16.7572 24.2678 16.8315 24.1926 16.921 24.1402L22.0605 21.1458C22.2713 21.0229 22.4463 20.8462 22.568 20.6335C22.6896 20.4207 22.7536 20.1793 22.7537 19.9336V17.6983C22.7534 17.5219 22.7072 17.3486 22.6197 17.1959C22.5321 17.0432 22.4063 16.9163 22.2549 16.8281C22.1035 16.7399 21.9318 16.6935 21.757 16.6934C21.5821 16.6933 21.4103 16.7395 21.2588 16.8276L9.31636 23.7863C9.16492 23.8747 9.03919 24.0017 8.95178 24.1547C8.86436 24.3076 8.81836 24.481 8.81836 24.6576C8.81836 24.8341 8.86436 25.0076 8.95178 25.1605C9.03919 25.3134 9.16492 25.4404 9.31636 25.5288L21.2588 32.4876C21.4103 32.5756 21.5821 32.6219 21.757 32.6218C21.9318 32.6217 22.1035 32.5753 22.2549 32.4871C22.4063 32.3989 22.5321 32.272 22.6197 32.1192C22.7072 31.9665 22.7534 31.7933 22.7537 31.6168V29.3803C22.7536 29.1347 22.6896 28.8934 22.568 28.6806C22.4463 28.4679 22.2713 28.2911 22.0605 28.1682L16.921 25.1717Z" fill="#FFB300"/>
<path d="M9.08506 33.5424C10.7997 33.5424 12.1896 32.1396 12.1896 30.4091C12.1896 28.6787 10.7997 27.2759 9.08506 27.2759C7.37044 27.2759 5.98047 28.6787 5.98047 30.4091C5.98047 32.1396 7.37044 33.5424 9.08506 33.5424Z" fill="#FFB300"/>
<defs>
<linearGradient id="paint0_linear_1_3386" x1="-5.84652" y1="5.65629" x2="13.7743" y2="14.7781" gradientUnits="userSpaceOnUse">
<stop stop-color="#F78B00"/>
<stop offset="0.289" stop-color="#F07200"/>
<stop offset="0.564" stop-color="#EB6100"/>
<stop offset="0.774" stop-color="#EA5C00"/>
<stop offset="1" stop-color="#DF2908"/>
</linearGradient>
</defs>
</svg>
