<svg width="25" height="27" viewBox="0 0 25 27" fill="none" xmlns="http://www.w3.org/2000/svg">
<path d="M24.0811 12.9722L1.09564 0.723159C0.969406 0.680865 0.833703 0.675663 0.704626 0.70817C0.575549 0.740676 0.458514 0.809527 0.367407 0.906555C0.2763 1.00358 0.214943 1.12471 0.190616 1.25558C0.166289 1.38645 0.180012 1.52156 0.230158 1.64488L2.86998 10.6979C2.94633 10.9591 3.10136 11.1905 3.31395 11.3605C3.52653 11.5305 3.78634 11.6308 4.05797 11.6478L17.4127 13.4852C17.5524 13.4952 17.8612 13.5541 17.8603 13.6898C17.8594 13.8256 17.5707 13.9048 17.4299 13.917L4.36665 14.9057C4.0818 14.9257 3.81117 15.0376 3.59536 15.2246C3.37956 15.4115 3.23023 15.6634 3.16979 15.9425L1.00412 25.8484C0.963992 25.9734 0.959965 26.1072 0.992493 26.2344C1.02502 26.3616 1.09278 26.4771 1.188 26.5675C1.28321 26.658 1.402 26.7197 1.53072 26.7456C1.65944 26.7716 1.79286 26.7607 1.91564 26.7142L24.1093 14.281C24.2429 14.2295 24.3573 14.1382 24.4371 14.0193C24.5168 13.9004 24.5579 13.7599 24.5548 13.6168C24.5517 13.4737 24.5046 13.335 24.4198 13.2196C24.335 13.1043 24.2167 13.0179 24.0811 12.9722Z" fill="white"/>
</svg>
