<svg width="16" height="16" viewBox="0 0 16 16" fill="none" xmlns="http://www.w3.org/2000/svg">
<g clip-path="url(#clip0_1_17548)">
<path fill-rule="evenodd" clip-rule="evenodd" d="M5.00998 0.656494H10.5989C11.7995 0.656494 12.935 1.16574 13.7334 1.96514C14.5318 2.81783 15.0464 3.91329 15.0464 5.1568V10.6874C15.0464 11.9428 14.5318 13.0264 13.7334 13.8258C12.9409 14.6785 11.7995 15.1345 10.5989 15.1345H5.00998C3.81531 15.1345 2.67387 14.6785 1.87545 13.8258C1.07704 13.0264 0.5625 11.9428 0.5625 10.6874V5.1568C0.5625 3.91329 1.07704 2.81783 1.87545 1.96514C2.67387 1.16574 3.81531 0.656494 5.00998 0.656494ZM14.248 4.25082C12.592 4.0791 9.91285 4.13239 8.03213 4.59426H7.74825C5.80839 4.13239 3.07012 4.07317 1.42006 4.25082L1.30177 4.47583C1.42006 3.74157 1.81631 2.99547 2.33085 2.48622C3.01098 1.79341 3.98091 1.4026 5.00406 1.4026H10.593C11.6221 1.4026 12.5328 1.79341 13.2189 2.48622C13.7275 2.94218 14.0705 3.56985 14.248 4.25082ZM6.38207 7.89843C6.94983 7.6142 7.17457 6.8681 7.17457 6.8681C7.17457 6.8681 7.39931 6.30556 7.63588 5.67789C7.63588 5.61275 7.74825 5.55946 7.80148 5.50617C7.91976 5.55946 8.02622 5.55946 8.02622 5.67789C8.19773 6.30556 8.48753 6.8681 8.48753 6.8681C8.48753 6.8681 8.77141 7.6142 9.28003 7.89843C9.91285 8.18266 10.4215 8.18266 11.3382 8.18266C12.1898 8.18266 12.9882 7.95765 12.9882 7.95765C12.9882 7.95765 13.6151 7.85106 13.899 6.82073C14.1297 5.85553 14.242 5.56538 14.242 5.56538C14.242 5.56538 14.242 5.51209 14.3485 5.39366V10.6934C14.3485 11.7237 13.8931 12.683 13.213 13.3758C12.5269 14.0567 11.6161 14.4594 10.5871 14.4594H5.00998C3.98091 14.4594 3.01689 14.0567 2.33676 13.3758C1.6448 12.683 1.25446 11.7178 1.25446 10.6934V5.38774C1.30769 5.45287 1.36683 5.55946 1.36683 5.55946C1.36683 5.55946 1.53834 5.84961 1.769 6.81481C2.05288 7.84514 2.67978 7.95173 2.67978 7.95173C2.67978 7.95173 3.47229 8.17674 4.32984 8.17674C5.1874 8.17674 5.74925 8.12345 6.38207 7.89251V7.89843ZM4.7261 9.83475V10.4091C6.21056 11.8895 9.40423 11.8895 10.8236 10.4091V9.83475C10.8236 9.83475 9.74134 10.9776 7.80148 10.9776C5.86162 10.9776 4.72018 9.83475 4.72018 9.83475H4.7261Z" fill="white"/>
</g>
<defs>
<clipPath id="clip0_1_17548">
<rect width="14.478" height="14.478" fill="white" transform="translate(0.5625 0.656494)"/>
</clipPath>
</defs>
</svg>
