<svg width="85" height="46" viewBox="0 0 85 46" fill="none" xmlns="http://www.w3.org/2000/svg">
<g id="Group 43118">
<g id="Group 43137">
<g id="Group 43117">
<rect id="Rectangle 3169" x="1" y="4" width="69" height="37" rx="18.5" fill="#454545"/>
<path id="Vector" d="M57.4499 41.6951H19.201C8.61379 41.6951 0 33.084 0 22.5C0 11.9161 8.61379 3.30493 19.201 3.30493H57.4499C57.782 3.30493 58.0519 3.57472 58.0519 3.90676C58.0519 4.23881 57.782 4.5086 57.4499 4.5086H19.201C9.27808 4.5086 1.20404 12.5789 1.20404 22.5C1.20404 32.4212 9.27678 40.4915 19.201 40.4915H57.4499C57.782 40.4915 58.0519 40.7613 58.0519 41.0933C58.0519 41.4254 57.782 41.6951 57.4499 41.6951Z" fill="url(#paint0_linear_1_10852)"/>
<g id="Group">
<path id="Vector_2" d="M20.3658 13.5113C19.9999 13.5113 19.7041 13.2143 19.7041 12.8498V10.3102C19.7041 9.94441 20.0012 9.64868 20.3658 9.64868C20.7304 9.64868 21.0275 9.94571 21.0275 10.3102V12.8498C21.0275 13.2156 20.7304 13.5113 20.3658 13.5113Z" fill="url(#paint1_linear_1_10852)"/>
<path id="Vector_3" d="M20.3658 35.4237C19.9999 35.4237 19.7041 35.1267 19.7041 34.7622V32.1681C19.7041 31.8023 20.0012 31.5066 20.3658 31.5066C20.7304 31.5066 21.0275 31.8036 21.0275 32.1681V34.7622C21.0275 35.128 20.7304 35.4237 20.3658 35.4237Z" fill="url(#paint2_linear_1_10852)"/>
<path id="Vector_4" d="M32.5949 23.1978H30.0181C29.6523 23.1978 29.3564 22.9007 29.3564 22.5363C29.3564 22.1718 29.6536 21.8748 30.0181 21.8748H32.5949C32.9608 21.8748 33.2566 22.1718 33.2566 22.5363C33.2566 22.9007 32.9595 23.1978 32.5949 23.1978Z" fill="url(#paint3_linear_1_10852)"/>
<path id="Vector_5" d="M10.6819 23.1978H8.13631C7.77043 23.1978 7.47461 22.9007 7.47461 22.5363C7.47461 22.1718 7.77173 21.8748 8.13631 21.8748H10.6819C11.0478 21.8748 11.3436 22.1718 11.3436 22.5363C11.3436 22.9007 11.0465 23.1978 10.6819 23.1978Z" fill="url(#paint4_linear_1_10852)"/>
<path id="Vector_6" d="M27.1972 16.3675C27.0272 16.3675 26.8585 16.3026 26.7288 16.1729C26.4706 15.9148 26.4706 15.4945 26.7288 15.2364L28.5439 13.4219C28.8021 13.1637 29.2225 13.1637 29.4807 13.4219C29.7389 13.68 29.7389 14.1002 29.4807 14.3583L27.6656 16.1729C27.5358 16.3026 27.3671 16.3675 27.1972 16.3675Z" fill="url(#paint5_linear_1_10852)"/>
<path id="Vector_7" d="M11.7187 31.8426C11.5487 31.8426 11.38 31.7777 11.2503 31.648C10.9921 31.3899 10.9921 30.9696 11.2503 30.7115L13.0654 28.897C13.3236 28.6388 13.744 28.6388 14.0022 28.897C14.2604 29.1551 14.2604 29.5753 14.0022 29.8334L12.187 31.648C12.0573 31.7777 11.8886 31.8426 11.7187 31.8426Z" fill="url(#paint6_linear_1_10852)"/>
<path id="Vector_8" d="M29.0132 31.8426C28.8433 31.8426 28.6746 31.7778 28.5449 31.6481L26.7142 29.8179C26.456 29.5598 26.456 29.1396 26.7142 28.8815C26.9723 28.6233 27.3914 28.6233 27.6509 28.8815L29.4816 30.7116C29.7398 30.9697 29.7398 31.39 29.4816 31.6481C29.3519 31.7778 29.1832 31.8426 29.0132 31.8426Z" fill="url(#paint7_linear_1_10852)"/>
<path id="Vector_9" d="M13.513 16.3467C13.3431 16.3467 13.1744 16.2819 13.0447 16.1522L11.2503 14.3583C10.9921 14.1002 10.9921 13.68 11.2503 13.4219C11.5085 13.1637 11.9289 13.1637 12.187 13.4219L13.9814 15.2157C14.2396 15.4738 14.2396 15.894 13.9814 16.1522C13.8517 16.2819 13.683 16.3467 13.513 16.3467Z" fill="url(#paint8_linear_1_10852)"/>
<g id="Group_2">
<path id="Vector_10" d="M20.3661 28.9371C23.9031 28.9371 26.7704 26.0707 26.7704 22.5348C26.7704 18.999 23.9031 16.1326 20.3661 16.1326C16.8292 16.1326 13.9619 18.999 13.9619 22.5348C13.9619 26.0707 16.8292 28.9371 20.3661 28.9371Z" fill="white"/>
<path id="Vector_11" d="M20.3657 29.5999C16.4695 29.5999 13.2998 26.4312 13.2998 22.5362C13.2998 18.6411 16.4695 15.4724 20.3657 15.4724C24.262 15.4724 27.4317 18.6411 27.4317 22.5362C27.4317 26.4312 24.262 29.5999 20.3657 29.5999ZM20.3657 16.7954C17.1999 16.7954 14.6245 19.3701 14.6245 22.5349C14.6245 25.6997 17.1999 28.2743 20.3657 28.2743C23.5315 28.2743 26.107 25.6997 26.107 22.5349C26.107 19.3701 23.5315 16.7954 20.3657 16.7954Z" fill="url(#paint9_linear_1_10852)"/>
</g>
</g>
<path id="Vector_12" d="M85.0008 22.4994C85.0008 10.0733 74.9244 0 62.4945 0C50.0647 0 39.9883 10.0733 39.9883 22.4994C39.9883 34.9254 50.0647 44.9987 62.4945 44.9987C74.9244 44.9987 85.0008 34.9254 85.0008 22.4994Z" fill="url(#paint10_linear_1_10852)"/>
<path id="Vector_13" d="M65.4361 11.4607C64.9379 11.3634 64.5746 11.9328 64.8743 12.3427C66.0965 14.0172 66.8698 16.0484 67.0073 18.2702C67.39 24.4702 62.6738 29.8075 56.4707 30.1915C56.4655 30.1915 56.4616 30.1915 56.4564 30.1915C55.9439 30.2226 55.7259 30.8607 56.1217 31.1876C58.2793 32.9633 61.1 33.9438 64.1166 33.7181C70.0797 33.2707 74.6921 28.1603 74.5182 22.1847C74.3613 16.789 70.4598 12.4426 65.4361 11.4607Z" fill="white"/>
<path id="Vector_14" d="M60.163 20.2936C60.1487 20.2936 60.1344 20.2936 60.1202 20.2923L57.6978 20.1341C57.3397 20.1107 57.0699 19.802 57.0932 19.4453C57.1166 19.0874 57.4254 18.8163 57.7822 18.8409L60.2045 18.9992C60.5626 19.0225 60.8325 19.3312 60.8091 19.6879C60.7871 20.0303 60.5016 20.2936 60.163 20.2936Z" fill="white"/>
<path id="Vector_15" d="M58.8734 21.426C58.8592 21.426 58.8449 21.426 58.8306 21.4247C58.4725 21.4013 58.2027 21.0926 58.226 20.7359L58.3843 18.3143C58.4077 17.9576 58.7165 17.6866 59.0733 17.7099C59.4314 17.7332 59.7012 18.0419 59.6779 18.3986L59.5196 20.8202C59.4975 21.1627 59.2121 21.426 58.8734 21.426Z" fill="white"/>
<path id="Vector_16" d="M56.3244 13.6981C56.1363 13.6981 55.9494 13.6164 55.8223 13.4594C55.5952 13.1818 55.6368 12.7733 55.9144 12.5463L58.1759 10.698C58.4535 10.471 58.8622 10.5125 59.0893 10.7901C59.3163 11.0676 59.2748 11.4762 58.9972 11.7032L56.7357 13.5515C56.615 13.6501 56.4697 13.6981 56.3257 13.6981H56.3244Z" fill="white"/>
<path id="Vector_17" d="M58.3803 13.9045C58.1922 13.9045 58.0053 13.8228 57.8782 13.6658L56.0293 11.4051C55.8023 11.1275 55.8438 10.7189 56.1214 10.4919C56.3991 10.2649 56.8078 10.3064 57.0349 10.584L58.8837 12.8448C59.1108 13.1224 59.0693 13.5309 58.7916 13.7579C58.6709 13.8565 58.5256 13.9045 58.3816 13.9045H58.3803Z" fill="white"/>
<path id="Vector_18" d="M51.5848 24.9059C51.3279 24.9059 51.0852 24.7529 50.9827 24.5L49.6996 21.3235C49.5659 20.9914 49.7255 20.614 50.0577 20.4791C50.3898 20.3455 50.7687 20.505 50.9023 20.8371L52.1855 24.0136C52.3191 24.3456 52.1595 24.723 51.8274 24.8579C51.7482 24.8904 51.6652 24.9059 51.5848 24.9059Z" fill="white"/>
<path id="Vector_19" d="M49.3524 23.9593C49.0955 23.9593 48.8528 23.8062 48.7503 23.5533C48.6167 23.2212 48.7763 22.8438 49.1084 22.7089L52.2859 21.4261C52.618 21.2925 52.9956 21.4521 53.1305 21.7841C53.2642 22.1161 53.1046 22.4936 52.7724 22.6285L49.595 23.9113C49.5158 23.9437 49.4328 23.9593 49.3524 23.9593Z" fill="white"/>
</g>
</g>
</g>
<defs>
<linearGradient id="paint0_linear_1_10852" x1="46.2674" y1="13.7471" x2="25.2467" y2="47.2093" gradientUnits="userSpaceOnUse">
<stop stop-color="#DF2908"/>
<stop offset="1" stop-color="#F58600"/>
</linearGradient>
<linearGradient id="paint1_linear_1_10852" x1="20.7589" y1="10.6993" x2="19.2603" y2="11.2398" gradientUnits="userSpaceOnUse">
<stop stop-color="#DF2908"/>
<stop offset="1" stop-color="#F58600"/>
</linearGradient>
<linearGradient id="paint2_linear_1_10852" x1="20.7589" y1="32.572" x2="19.2555" y2="33.1067" gradientUnits="userSpaceOnUse">
<stop stop-color="#DF2908"/>
<stop offset="1" stop-color="#F58600"/>
</linearGradient>
<linearGradient id="paint3_linear_1_10852" x1="32.4649" y1="22.2346" x2="31.9954" y2="23.6916" gradientUnits="userSpaceOnUse">
<stop stop-color="#DF2908"/>
<stop offset="1" stop-color="#F58600"/>
</linearGradient>
<linearGradient id="paint4_linear_1_10852" x1="10.5582" y1="22.2346" x2="10.0857" y2="23.6894" gradientUnits="userSpaceOnUse">
<stop stop-color="#DF2908"/>
<stop offset="1" stop-color="#F58600"/>
</linearGradient>
<linearGradient id="paint5_linear_1_10852" x1="29.0371" y1="14.0821" x2="27.1316" y2="16.0881" gradientUnits="userSpaceOnUse">
<stop stop-color="#DF2908"/>
<stop offset="1" stop-color="#F58600"/>
</linearGradient>
<linearGradient id="paint6_linear_1_10852" x1="13.5586" y1="29.5572" x2="11.6531" y2="31.5632" gradientUnits="userSpaceOnUse">
<stop stop-color="#DF2908"/>
<stop offset="1" stop-color="#F58600"/>
</linearGradient>
<linearGradient id="paint7_linear_1_10852" x1="29.0348" y1="29.546" x2="27.1199" y2="31.5619" gradientUnits="userSpaceOnUse">
<stop stop-color="#DF2908"/>
<stop offset="1" stop-color="#F58600"/>
</linearGradient>
<linearGradient id="paint8_linear_1_10852" x1="13.542" y1="14.0765" x2="11.6491" y2="16.0692" gradientUnits="userSpaceOnUse">
<stop stop-color="#DF2908"/>
<stop offset="1" stop-color="#F58600"/>
</linearGradient>
<linearGradient id="paint9_linear_1_10852" x1="24.5629" y1="19.3151" x2="15.9876" y2="28.3452" gradientUnits="userSpaceOnUse">
<stop stop-color="#DF2908"/>
<stop offset="1" stop-color="#F58600"/>
</linearGradient>
<linearGradient id="paint10_linear_1_10852" x1="75.8633" y1="12.2396" x2="48.5495" y2="41.0022" gradientUnits="userSpaceOnUse">
<stop stop-color="#DF2908"/>
<stop offset="1" stop-color="#F58600"/>
</linearGradient>
</defs>
</svg>
