<svg width="24" height="14" viewBox="0 0 24 14" fill="none" xmlns="http://www.w3.org/2000/svg">
<g clip-path="url(#clip0_1_10485)">
<path d="M11.9998 13.9949C8.10573 13.9949 4.9375 10.8547 4.9375 6.99487C4.9375 3.135 8.10573 -0.00512695 11.9998 -0.00512695C15.8939 -0.00512695 19.0622 3.135 19.0622 6.99487C19.0622 10.8547 15.8941 13.9949 11.9998 13.9949ZM11.9998 1.57075C8.98234 1.57075 6.52741 4.00401 6.52741 6.99487C6.52741 9.98573 8.98234 12.419 11.9998 12.419C15.0173 12.419 17.4723 9.98573 17.4723 6.99487C17.4723 4.00401 15.0173 1.57075 11.9998 1.57075Z" fill="white"/>
<path d="M12 13.9949C5.61757 13.9949 0.595956 7.74743 0.38529 7.48144L0 6.99487L0.385429 6.5083C0.595956 6.24231 5.61757 -0.00512695 12 -0.00512695C18.3824 -0.00512695 23.404 6.24231 23.6147 6.5083L24.0001 6.99487L23.6147 7.48144C23.4042 7.74743 18.3824 13.9949 12 13.9949ZM2.05609 6.99487C3.33294 8.40944 7.36172 12.419 12 12.419C16.6383 12.419 20.6665 8.40999 21.9436 6.99487C20.6664 5.57989 16.6376 1.57075 12 1.57075C7.36241 1.57075 3.3335 5.57975 2.05609 6.99487Z" fill="white"/>
<path d="M12.0007 3.64331C11.6435 3.64331 11.2997 3.69897 10.9766 3.80075C11.5788 4.05718 12.0007 4.64996 12.0007 5.34076C12.0007 6.26627 11.2438 7.01661 10.3099 7.01661C9.6205 7.01661 9.0286 6.60703 8.76541 6.02063C8.67097 6.32913 8.61914 6.65591 8.61914 6.99501C8.61914 8.84602 10.1331 10.3466 12.0006 10.3466C13.868 10.3466 15.3821 8.84602 15.3821 6.99501C15.3821 5.144 13.8682 3.64331 12.0006 3.64331H12.0007Z" fill="white"/>
</g>
<defs>
<clipPath id="clip0_1_10485">
<rect width="24" height="14" fill="white" transform="translate(0 -0.00512695)"/>
</clipPath>
</defs>
</svg>
