<svg width="23" height="23" viewBox="0 0 23 23" fill="none" xmlns="http://www.w3.org/2000/svg">
<path d="M3.15569 6.1965C4.89853 6.1965 6.31138 4.80937 6.31138 3.09825C6.31138 1.38713 4.89853 0 3.15569 0C1.41285 0 0 1.38713 0 3.09825C0 4.80937 1.41285 6.1965 3.15569 6.1965Z" fill="white"/>
<path d="M3.15569 14.1633C4.89853 14.1633 6.31138 12.7762 6.31138 11.065C6.31138 9.35393 4.89853 7.9668 3.15569 7.9668C1.41285 7.9668 0 9.35393 0 11.065C0 12.7762 1.41285 14.1633 3.15569 14.1633Z" fill="white"/>
<path d="M3.15569 22.1303C4.89853 22.1303 6.31138 20.7432 6.31138 19.0321C6.31138 17.321 4.89853 15.9338 3.15569 15.9338C1.41285 15.9338 0 17.321 0 19.0321C0 20.7432 1.41285 22.1303 3.15569 22.1303Z" fill="white"/>
<path d="M11.2709 6.1965C13.0138 6.1965 14.4266 4.80937 14.4266 3.09825C14.4266 1.38713 13.0138 0 11.2709 0C9.52808 0 8.11523 1.38713 8.11523 3.09825C8.11523 4.80937 9.52808 6.1965 11.2709 6.1965Z" fill="white"/>
<path d="M11.2709 14.1633C13.0138 14.1633 14.4266 12.7762 14.4266 11.065C14.4266 9.35393 13.0138 7.9668 11.2709 7.9668C9.52808 7.9668 8.11523 9.35393 8.11523 11.065C8.11523 12.7762 9.52808 14.1633 11.2709 14.1633Z" fill="white"/>
<path d="M11.2709 22.1303C13.0138 22.1303 14.4266 20.7432 14.4266 19.0321C14.4266 17.321 13.0138 15.9338 11.2709 15.9338C9.52808 15.9338 8.11523 17.321 8.11523 19.0321C8.11523 20.7432 9.52808 22.1303 11.2709 22.1303Z" fill="white"/>
<path d="M19.3842 6.1965C21.127 6.1965 22.5399 4.80937 22.5399 3.09825C22.5399 1.38713 21.127 0 19.3842 0C17.6414 0 16.2285 1.38713 16.2285 3.09825C16.2285 4.80937 17.6414 6.1965 19.3842 6.1965Z" fill="white"/>
<path d="M19.3842 14.1631C21.127 14.1631 22.5399 12.7759 22.5399 11.0648C22.5399 9.35369 21.127 7.96655 19.3842 7.96655C17.6414 7.96655 16.2285 9.35369 16.2285 11.0648C16.2285 12.7759 17.6414 14.1631 19.3842 14.1631Z" fill="white"/>
<path d="M19.3842 22.1306C21.127 22.1306 22.5399 20.7435 22.5399 19.0323C22.5399 17.3212 21.127 15.9341 19.3842 15.9341C17.6414 15.9341 16.2285 17.3212 16.2285 19.0323C16.2285 20.7435 17.6414 22.1306 19.3842 22.1306Z" fill="white"/>
<path d="M19.3837 20.3602C20.1306 20.3602 20.7361 19.7657 20.7361 19.0324C20.7361 18.2991 20.1306 17.7046 19.3837 17.7046C18.6368 17.7046 18.0312 18.2991 18.0312 19.0324C18.0312 19.7657 18.6368 20.3602 19.3837 20.3602Z" fill="url(#paint0_linear_1_12941)"/>
<defs>
<linearGradient id="paint0_linear_1_12941" x1="19.3837" y1="17.7046" x2="19.3837" y2="20.3602" gradientUnits="userSpaceOnUse">
<stop stop-color="#DF2908"/>
<stop offset="1" stop-color="#F58600"/>
</linearGradient>
</defs>
</svg>
