<svg width="85" height="46" viewBox="0 0 85 46" fill="none" xmlns="http://www.w3.org/2000/svg">
<g id="Group 43138">
<g id="Group">
<path id="Vector" d="M33.6904 4.35486H65.6007C75.9794 4.35486 84.3917 12.7035 84.3917 23.0008C84.3917 33.2993 75.9781 41.6467 65.6007 41.6467H33.6904" fill="url(#paint0_linear_1_12754)"/>
<path id="Vector_2" d="M65.6021 42.2498H33.6918C33.3554 42.2498 33.084 41.9791 33.084 41.6466C33.084 41.3141 33.3567 41.0435 33.6918 41.0435H65.6021C75.6288 41.0435 83.7853 32.95 83.7853 23.0007C83.7853 13.0515 75.6288 4.958 65.6021 4.958H33.6918C33.3554 4.958 33.084 4.68735 33.084 4.35485C33.084 4.02235 33.3567 3.75171 33.6918 3.75171H65.6021C76.299 3.75171 85.0022 12.3865 85.0022 23.002C85.0022 33.6176 76.3003 42.2524 65.6021 42.2524V42.2498Z" fill="url(#paint1_linear_1_12754)"/>
</g>
<g id="Group_2">
<path id="Vector_3" d="M0.648399 22.9993C0.648399 35.3464 10.7356 45.3556 23.1787 45.3556C35.6218 45.3556 45.709 35.3464 45.709 22.9993C45.709 10.6523 35.6218 0.643066 23.1787 0.643066C10.7356 0.643066 0.648399 10.6523 0.648399 22.9993Z" fill="white"/>
<path id="Vector_4" d="M23.1797 46C10.3982 46 0 35.6821 0 23.0006C0 10.3192 10.3982 0 23.1797 0C35.9612 0 46.3594 10.3179 46.3594 23.0006C46.3594 35.6834 35.9612 46.0013 23.1797 46.0013V46ZM23.1797 1.28877C11.1138 1.28877 1.2988 11.028 1.2988 23.0006C1.2988 34.9733 11.1138 44.7125 23.1797 44.7125C35.2456 44.7125 45.0606 34.9733 45.0606 23.0006C45.0606 11.028 35.2443 1.28877 23.1797 1.28877Z" fill="url(#paint2_linear_1_12754)"/>
</g>
<g id="Group_3">
<path id="Vector_5" d="M65.8138 13.4483C65.38 13.3645 65.0644 13.8568 65.3242 14.2112C66.3879 15.6585 67.062 17.4151 67.1814 19.3354C67.5152 24.6966 63.4071 29.3104 58.0041 29.6416C58.0002 29.6416 57.9963 29.6416 57.9911 29.6416C57.5456 29.6687 57.3547 30.2203 57.7002 30.5025C59.5796 32.0375 62.0369 32.8855 64.6631 32.6896C69.857 32.303 73.8742 27.8838 73.7235 22.7184C73.5871 18.053 70.1882 14.295 65.8125 13.447L65.8138 13.4483Z" fill="white"/>
<path id="Vector_6" d="M61.2184 21.128C61.2054 21.128 61.1912 21.128 61.1782 21.1267L59.0689 20.9901C58.7338 20.9682 58.4793 20.6808 58.5013 20.3483C58.5234 20.0158 58.8105 19.7632 59.1481 19.7851L61.2574 19.9217C61.5925 19.9437 61.847 20.2311 61.825 20.5636C61.8042 20.8832 61.5366 21.128 61.2184 21.128Z" fill="white"/>
<path id="Vector_7" d="M60.0955 22.1062C60.0825 22.1062 60.0682 22.1062 60.0552 22.1049C59.7202 22.083 59.4656 21.7956 59.4877 21.4631L59.6253 19.3702C59.6474 19.0377 59.9332 18.7851 60.2721 18.807C60.6072 18.8289 60.8618 19.1163 60.8397 19.4488L60.702 21.5418C60.6813 21.8614 60.4137 22.1062 60.0955 22.1062Z" fill="white"/>
<path id="Vector_8" d="M57.8765 15.4252C57.6999 15.4252 57.5259 15.3492 57.4051 15.2036C57.1921 14.9458 57.231 14.5656 57.4908 14.3543L59.4611 12.7562C59.7208 12.5448 60.104 12.5835 60.317 12.8412C60.53 13.099 60.491 13.4792 60.2313 13.6905L58.261 15.2886C58.148 15.3801 58.0116 15.4252 57.8765 15.4252Z" fill="white"/>
<path id="Vector_9" d="M59.6667 15.6044C59.4901 15.6044 59.3161 15.5283 59.1953 15.3827L57.5848 13.4276C57.3718 13.1699 57.4107 12.7897 57.6705 12.5783C57.9302 12.367 58.3134 12.4056 58.5264 12.6634L60.1369 14.6185C60.3499 14.8762 60.3109 15.2564 60.0512 15.4678C59.9382 15.5593 59.8018 15.6044 59.6667 15.6044Z" fill="white"/>
<path id="Vector_10" d="M53.747 25.1154C53.5067 25.1154 53.2781 24.9724 53.1833 24.7378L52.065 21.9914C51.939 21.6821 52.0897 21.3303 52.4014 21.2053C52.7131 21.0803 53.0677 21.2298 53.1937 21.5391L54.3119 24.2854C54.4379 24.5948 54.2873 24.9466 53.9755 25.0716C53.9002 25.1012 53.8236 25.1154 53.7483 25.1154H53.747Z" fill="white"/>
<path id="Vector_11" d="M51.8035 24.2972C51.5632 24.2972 51.3346 24.1541 51.2398 23.9196C51.1138 23.6102 51.2645 23.2584 51.5762 23.1334L54.344 22.0238C54.6557 21.8988 55.0102 22.0483 55.1362 22.3576C55.2622 22.6669 55.1115 23.0187 54.7998 23.1437L52.0321 24.2533C51.9581 24.283 51.8801 24.2972 51.8048 24.2972H51.8035Z" fill="white"/>
</g>
<g id="Group_4">
<g id="Group_5">
<path id="Vector_12" d="M22.8252 12.2601C22.3953 12.2601 22.0459 11.9135 22.0459 11.4869V8.46857C22.0459 8.04199 22.3953 7.69531 22.8252 7.69531C23.2551 7.69531 23.6045 8.04199 23.6045 8.46857V11.4869C23.6045 11.9135 23.2551 12.2601 22.8252 12.2601Z" fill="url(#paint3_linear_1_12754)"/>
<path id="Vector_13" d="M22.8252 38.3048C22.3953 38.3048 22.0459 37.9581 22.0459 37.5315V34.4488C22.0459 34.0222 22.3953 33.6755 22.8252 33.6755C23.2551 33.6755 23.6045 34.0222 23.6045 34.4488V37.5315C23.6045 37.9581 23.2551 38.3048 22.8252 38.3048Z" fill="url(#paint4_linear_1_12754)"/>
<path id="Vector_14" d="M37.4694 23.7739H34.3847C33.9548 23.7739 33.6055 23.4273 33.6055 23.0007C33.6055 22.5741 33.9548 22.2274 34.3847 22.2274H37.4694C37.8993 22.2274 38.2487 22.5741 38.2487 23.0007C38.2487 23.4273 37.8993 23.7739 37.4694 23.7739Z" fill="url(#paint5_linear_1_12754)"/>
<path id="Vector_15" d="M11.2299 23.7739H8.18162C7.75172 23.7739 7.40234 23.4273 7.40234 23.0007C7.40234 22.5741 7.75172 22.2274 8.18162 22.2274H11.2299C11.6598 22.2274 12.0092 22.5741 12.0092 23.0007C12.0092 23.4273 11.6598 23.7739 11.2299 23.7739Z" fill="url(#paint6_linear_1_12754)"/>
<path id="Vector_16" d="M31.0052 15.656C30.8052 15.656 30.6065 15.5799 30.4545 15.4292C30.1506 15.1276 30.1506 14.6379 30.4545 14.335L32.6287 12.1776C32.9326 11.876 33.4262 11.876 33.7301 12.1776C34.034 12.4792 34.034 12.9689 33.7301 13.2718L31.5559 15.4292C31.4039 15.5799 31.2039 15.656 31.0052 15.656Z" fill="url(#paint7_linear_1_12754)"/>
<path id="Vector_17" d="M12.47 34.0493C12.27 34.0493 12.0713 33.9733 11.9193 33.8225C11.6154 33.5209 11.6154 33.0312 11.9193 32.7283L14.0935 30.5709C14.3975 30.2693 14.891 30.2693 15.1962 30.5709C15.5001 30.8725 15.5001 31.3622 15.1962 31.6651L13.022 33.8225C12.8701 33.9733 12.6701 34.0493 12.4713 34.0493H12.47Z" fill="url(#paint8_linear_1_12754)"/>
<path id="Vector_18" d="M33.18 34.0494C32.98 34.0494 32.7813 33.9734 32.6293 33.8226L30.4369 31.6471C30.133 31.3456 30.133 30.8558 30.4369 30.553C30.7408 30.2514 31.2344 30.2514 31.5383 30.553L33.7307 32.7284C34.0346 33.03 34.0346 33.5197 33.7307 33.8226C33.5787 33.9734 33.3787 34.0494 33.18 34.0494Z" fill="url(#paint9_linear_1_12754)"/>
<path id="Vector_19" d="M14.6183 15.6302C14.4182 15.6302 14.2195 15.5542 14.0676 15.4034L11.9193 13.2718C11.6154 12.9702 11.6154 12.4805 11.9193 12.1776C12.2233 11.876 12.7168 11.876 13.022 12.1776L15.1702 14.3092C15.4742 14.6108 15.4742 15.1005 15.1702 15.4034C15.0183 15.5542 14.8183 15.6302 14.6196 15.6302H14.6183Z" fill="url(#paint10_linear_1_12754)"/>
</g>
<path id="Vector_20" d="M22.8253 31.3828C18.1665 31.3828 14.3779 27.6222 14.3779 23.0007C14.3779 18.3792 18.1678 14.6185 22.8253 14.6185C27.4828 14.6185 31.2727 18.3792 31.2727 23.0007C31.2727 27.6222 27.4828 31.3828 22.8253 31.3828ZM22.8253 16.1638C19.0263 16.1638 15.9365 19.231 15.9365 22.9994C15.9365 26.7677 19.0276 29.835 22.8253 29.835C26.623 29.835 29.7142 26.7677 29.7142 22.9994C29.7142 19.231 26.623 16.1638 22.8253 16.1638Z" fill="url(#paint11_linear_1_12754)"/>
</g>
</g>
<defs>
<linearGradient id="paint0_linear_1_12754" x1="74.0993" y1="14.4982" x2="52.8162" y2="44.96" gradientUnits="userSpaceOnUse">
<stop stop-color="#DF2908"/>
<stop offset="1" stop-color="#F58600"/>
</linearGradient>
<linearGradient id="paint1_linear_1_12754" x1="74.4628" y1="14.2239" x2="52.4284" y2="45.5038" gradientUnits="userSpaceOnUse">
<stop stop-color="#DF2908"/>
<stop offset="1" stop-color="#F58600"/>
</linearGradient>
<linearGradient id="paint2_linear_1_12754" x1="36.9484" y1="12.5124" x2="9.0376" y2="42.1233" gradientUnits="userSpaceOnUse">
<stop stop-color="#DF2908"/>
<stop offset="1" stop-color="#F58600"/>
</linearGradient>
<linearGradient id="paint3_linear_1_12754" x1="23.2881" y1="8.93694" x2="21.5218" y2="9.5718" gradientUnits="userSpaceOnUse">
<stop stop-color="#DF2908"/>
<stop offset="1" stop-color="#F58600"/>
</linearGradient>
<linearGradient id="paint4_linear_1_12754" x1="23.2881" y1="34.9347" x2="21.5162" y2="35.5627" gradientUnits="userSpaceOnUse">
<stop stop-color="#DF2908"/>
<stop offset="1" stop-color="#F58600"/>
</linearGradient>
<linearGradient id="paint5_linear_1_12754" x1="37.3061" y1="22.6481" x2="36.7654" y2="24.357" gradientUnits="userSpaceOnUse">
<stop stop-color="#DF2908"/>
<stop offset="1" stop-color="#F58600"/>
</linearGradient>
<linearGradient id="paint6_linear_1_12754" x1="11.074" y1="22.6481" x2="10.5298" y2="24.3545" gradientUnits="userSpaceOnUse">
<stop stop-color="#DF2908"/>
<stop offset="1" stop-color="#F58600"/>
</linearGradient>
<linearGradient id="paint7_linear_1_12754" x1="33.2005" y1="12.9591" x2="30.9528" y2="15.3425" gradientUnits="userSpaceOnUse">
<stop stop-color="#DF2908"/>
<stop offset="1" stop-color="#F58600"/>
</linearGradient>
<linearGradient id="paint8_linear_1_12754" x1="14.6664" y1="31.3524" x2="12.4187" y2="33.7366" gradientUnits="userSpaceOnUse">
<stop stop-color="#DF2908"/>
<stop offset="1" stop-color="#F58600"/>
</linearGradient>
<linearGradient id="paint9_linear_1_12754" x1="33.1974" y1="31.3393" x2="30.9387" y2="33.7344" gradientUnits="userSpaceOnUse">
<stop stop-color="#DF2908"/>
<stop offset="1" stop-color="#F58600"/>
</linearGradient>
<linearGradient id="paint10_linear_1_12754" x1="14.6457" y1="12.952" x2="12.4136" y2="15.3197" gradientUnits="userSpaceOnUse">
<stop stop-color="#DF2908"/>
<stop offset="1" stop-color="#F58600"/>
</linearGradient>
<linearGradient id="paint11_linear_1_12754" x1="27.8431" y1="19.1784" x2="17.6715" y2="29.9696" gradientUnits="userSpaceOnUse">
<stop stop-color="#DF2908"/>
<stop offset="1" stop-color="#F58600"/>
</linearGradient>
</defs>
</svg>
