<svg width="124" height="126" viewBox="0 0 124 126" fill="none" xmlns="http://www.w3.org/2000/svg">
<g filter="url(#filter0_d_2011_2560)">
<path d="M58.26 17.7203C60.4896 16.0986 63.5104 16.0986 65.74 17.7203C67.3248 18.873 69.3525 19.2305 71.2359 18.6894C73.8858 17.928 76.7244 18.9612 78.2649 21.2477C79.3598 22.8729 81.143 23.9024 83.0979 24.0381C85.8483 24.2289 88.1624 26.1706 88.8279 28.8462C89.301 30.7478 90.6245 32.3251 92.4151 33.1212C94.9344 34.2413 96.4448 36.8573 96.1552 39.5991C95.9493 41.5479 96.6535 43.4827 98.0639 44.8432C100.048 46.7574 100.573 49.7323 99.3628 52.2097C98.5028 53.9705 98.5028 56.0295 99.3628 57.7903C100.573 60.2677 100.048 63.2426 98.0639 65.1568C96.6535 66.5173 95.9493 68.4521 96.1552 70.4009C96.4448 73.1427 94.9344 75.7587 92.4151 76.8788C90.6245 77.6749 89.301 79.2522 88.8279 81.1538C88.1624 83.8294 85.8483 85.7711 83.0979 85.9619C81.143 86.0976 79.3598 87.1271 78.2649 88.7523C76.7244 91.0388 73.8858 92.072 71.2359 91.3106C69.3525 90.7695 67.3248 91.127 65.74 92.2797C63.5104 93.9014 60.4896 93.9014 58.26 92.2797C56.6752 91.127 54.6475 90.7695 52.7641 91.3106C50.1142 92.072 47.2756 91.0388 45.7351 88.7523C44.6402 87.1271 42.857 86.0976 40.9021 85.9619C38.1517 85.7711 35.8376 83.8294 35.1721 81.1538C34.699 79.2522 33.3755 77.6749 31.5849 76.8788C29.0656 75.7587 27.5552 73.1427 27.8448 70.4009C28.0507 68.4521 27.3465 66.5173 25.9361 65.1568C23.9519 63.2426 23.4273 60.2677 24.6372 57.7903C25.4972 56.0295 25.4972 53.9705 24.6372 52.2097C23.4273 49.7323 23.9519 46.7574 25.9361 44.8432C27.3465 43.4827 28.0507 41.5479 27.8448 39.5991C27.5552 36.8573 29.0656 34.2413 31.5849 33.1212C33.3755 32.3251 34.699 30.7478 35.1721 28.8462C35.8376 26.1706 38.1517 24.2289 40.9021 24.0381C42.857 23.9024 44.6402 22.8729 45.7351 21.2477C47.2756 18.9612 50.1142 17.928 52.7641 18.6894C54.6475 19.2305 56.6752 18.873 58.26 17.7203Z" fill="#454545"/>
<path d="M59.4364 19.3377C60.9647 18.2261 63.0353 18.2261 64.5636 19.3377C66.6468 20.853 69.3124 21.323 71.7882 20.6116C73.6045 20.0898 75.5503 20.7979 76.6062 22.3652C78.0456 24.5016 80.3896 25.8549 82.9594 26.0333C84.8447 26.1641 86.4309 27.495 86.8871 29.329C87.509 31.8288 89.2488 33.9022 91.6026 34.9487C93.3295 35.7165 94.3648 37.5096 94.1662 39.389C93.8956 41.9508 94.8213 44.4942 96.6753 46.2826L98.0639 44.8432L96.6753 46.2826C98.0354 47.5947 98.395 49.6339 97.5656 51.332C96.4352 53.6467 96.4352 56.3533 97.5656 58.668C98.395 60.3661 98.0354 62.4053 96.6753 63.7174C94.8213 65.5058 93.8956 68.0492 94.1662 70.611C94.3648 72.4903 93.3295 74.2835 91.6026 75.0513C89.2488 76.0978 87.509 78.1712 86.8871 80.671C86.4309 82.505 84.8447 83.8359 82.9594 83.9667C80.3896 84.1451 78.0456 85.4984 76.6062 87.6348C75.5503 89.2021 73.6045 89.9102 71.7882 89.3884C69.3124 88.677 66.6468 89.147 64.5636 90.6623C63.0353 91.7739 60.9647 91.7739 59.4364 90.6623C57.3532 89.147 54.6876 88.677 52.2118 89.3884C50.3954 89.9102 48.4497 89.2021 47.3938 87.6348C45.9544 85.4984 43.6104 84.1451 41.0406 83.9667C39.1553 83.8359 37.5691 82.505 37.1129 80.671C36.491 78.1712 34.7512 76.0978 32.3974 75.0513C30.6705 74.2835 29.6352 72.4904 29.8338 70.611C30.1044 68.0492 29.1787 65.5058 27.3247 63.7174C25.9646 62.4053 25.605 60.3661 26.4344 58.668C27.5648 56.3533 27.5648 53.6467 26.4344 51.332C25.605 49.6339 25.9646 47.5947 27.3247 46.2826C29.1787 44.4942 30.1044 41.9508 29.8338 39.389C29.6352 37.5096 30.6705 35.7165 32.3974 34.9487C34.7512 33.9022 36.491 31.8288 37.1129 29.329C37.5691 27.495 39.1553 26.1641 41.0406 26.0333C43.6104 25.8549 45.9544 24.5016 47.3938 22.3652C48.4497 20.7979 50.3955 20.0898 52.2118 20.6116C54.6876 21.323 57.3532 20.853 59.4364 19.3377Z" stroke="url(#paint0_linear_2011_2560)" stroke-width="4"/>
</g>
<path d="M69 64H62V64C58.134 64 55 60.866 55 57V45C55 41.134 58.134 38 62 38V38C65.866 38 69 41.134 69 45V46" stroke="white" stroke-width="3" stroke-linecap="round"/>
<path d="M72 51H52C49.7909 51 48 52.7909 48 55V67C48 69.2091 49.7909 71 52 71H72C74.2091 71 76 69.2091 76 67V55C76 52.7909 74.2091 51 72 51Z" fill="url(#paint1_linear_2011_2560)"/>
<circle cx="62" cy="61" r="3" fill="white"/>
<defs>
<filter id="filter0_d_2011_2560" x="-0.0078125" y="0.503906" width="124.016" height="124.992" filterUnits="userSpaceOnUse" color-interpolation-filters="sRGB">
<feFlood flood-opacity="0" result="BackgroundImageFix"/>
<feColorMatrix in="SourceAlpha" type="matrix" values="0 0 0 0 0 0 0 0 0 0 0 0 0 0 0 0 0 0 127 0" result="hardAlpha"/>
<feOffset dy="8"/>
<feGaussianBlur stdDeviation="12"/>
<feColorMatrix type="matrix" values="0 0 0 0 0 0 0 0 0 0 0 0 0 0 0 0 0 0 0.08 0"/>
<feBlend mode="normal" in2="BackgroundImageFix" result="effect1_dropShadow_2011_2560"/>
<feBlend mode="normal" in="SourceGraphic" in2="effect1_dropShadow_2011_2560" result="shape"/>
</filter>
<linearGradient id="paint0_linear_2011_2560" x1="73.035" y1="-11.3067" x2="63.6447" y2="125.102" gradientUnits="userSpaceOnUse">
<stop stop-color="#DF2908"/>
<stop offset="1" stop-color="#F58600"/>
</linearGradient>
<linearGradient id="paint1_linear_2011_2560" x1="65.8622" y1="44.4233" x2="64.1815" y2="78.6045" gradientUnits="userSpaceOnUse">
<stop stop-color="#DF2908"/>
<stop offset="1" stop-color="#F58600"/>
</linearGradient>
</defs>
</svg>
