<svg width="43" height="43" viewBox="0 0 43 43" fill="none" xmlns="http://www.w3.org/2000/svg">
<g clip-path="url(#clip0_1_19419)">
<path d="M27.9893 17.3472L23.7113 21.6252L27.9893 25.9032L25.9034 27.9892L21.6254 23.7112L17.3474 27.9892L15.2614 25.9032L19.5394 21.6252L15.2614 17.3472L17.3474 15.2613L21.6254 19.5393L25.9034 15.2613L27.9893 17.3472Z" fill="url(#paint0_linear_1_19419)"/>
<path d="M13.3662 13.3731C17.92 8.8193 25.3093 8.82637 29.8631 13.3801C34.4168 17.9339 34.4097 25.3232 29.856 29.8769C25.3022 34.4307 17.9129 34.4236 13.3592 29.8699C11.1742 27.6849 9.94385 24.7151 9.95092 21.625C9.95092 18.5279 11.1813 15.558 13.3733 13.366M11.2874 11.28C5.57393 16.9935 5.57393 26.2565 11.2803 31.9629C16.9866 37.6693 26.2497 37.6693 31.9561 31.9629C37.6624 26.2566 37.6624 16.9934 31.9561 11.2871C26.2568 5.57368 17.0008 5.56661 11.2874 11.28Z" fill="url(#paint1_linear_1_19419)"/>
</g>
<defs>
<linearGradient id="paint0_linear_1_19419" x1="22.3597" y1="16.0382" x2="22.7002" y2="29.2981" gradientUnits="userSpaceOnUse">
<stop stop-color="#DF2908"/>
<stop offset="1" stop-color="#F58600"/>
</linearGradient>
<linearGradient id="paint1_linear_1_19419" x1="23.0448" y1="10.7702" x2="23.7065" y2="36.5323" gradientUnits="userSpaceOnUse">
<stop stop-color="#DF2908"/>
<stop offset="1" stop-color="#F58600"/>
</linearGradient>
<clipPath id="clip0_1_19419">
<rect width="29.25" height="29.25" fill="white" transform="translate(0.942383 21.625) rotate(-45)"/>
</clipPath>
</defs>
</svg>
