<svg width="34" height="26" viewBox="0 0 34 26" fill="none" xmlns="http://www.w3.org/2000/svg">
<g clip-path="url(#clip0_1_23797)">
<rect x="20" y="8" width="12" height="11" fill="url(#paint0_linear_1_23797)"/>
<path d="M34 23.1111V2.88889C34 1.29278 32.7321 0 31.1667 0H2.83333C1.26792 0 0 1.29278 0 2.88889V23.1111C0 24.7072 1.26792 26 2.83333 26H31.1667C32.7321 26 34 24.7072 34 23.1111ZM31.1667 16.6111H21.25V14.4444H31.1667V16.6111ZM31.1667 12.2778H21.25V10.1111H31.1667V12.2778Z" fill="white"/>
<path d="M2.83301 18.7778C2.90384 14.2134 4.86592 14.2928 7.01926 13.5562C8.37217 13.094 9.06634 12.769 9.06634 11.8228C9.06634 10.4217 7.50801 10.0028 7.50801 7.58339C7.50801 5.54673 8.81134 4.32617 10.6247 4.32617C12.438 4.32617 13.7413 5.53951 13.7413 7.58339C13.7413 9.99562 12.183 10.4145 12.183 11.8228C12.183 12.769 12.8843 13.094 14.2301 13.5562C16.3763 14.2928 18.3384 14.2134 18.4163 18.7778H2.83301Z" fill="#454545"/>
</g>
<defs>
<linearGradient id="paint0_linear_1_23797" x1="29.564" y1="10.992" x2="22.9417" y2="18.5972" gradientUnits="userSpaceOnUse">
<stop stop-color="#DF2908"/>
<stop offset="1" stop-color="#F58600"/>
</linearGradient>
<clipPath id="clip0_1_23797">
<rect width="34" height="26" fill="white"/>
</clipPath>
</defs>
</svg>
