<svg width="26" height="34" viewBox="0 0 26 34" fill="none" xmlns="http://www.w3.org/2000/svg">
<g clip-path="url(#clip0_1_23782)">
<path d="M3.20896 0H16.4239V6.07854C16.4239 7.97638 17.9773 9.52038 19.8867 9.52038H26V30.8108C26 32.5719 24.5631 34 22.7979 34H3.20896C1.44374 34 0 32.5719 0 30.8108V3.18921C0 1.42794 1.44363 0 3.20896 0ZM5.21993 28.6454H20.7858C21.1636 28.6454 21.47 28.3413 21.47 27.9653C21.47 27.5894 21.1637 27.2853 20.7858 27.2853H5.22005C4.84223 27.2853 4.53581 27.5894 4.53581 27.9653C4.53581 28.3413 4.84212 28.6454 5.22005 28.6454H5.21993ZM5.21993 24.0554H20.7858C21.1636 24.0554 21.47 23.7513 21.47 23.3754C21.47 22.9994 21.1637 22.6953 20.7858 22.6953H5.22005C4.84223 22.6953 4.53581 22.9994 4.53581 23.3754C4.53581 23.7513 4.84212 24.0554 5.22005 24.0554H5.21993ZM5.21993 19.4654H20.7858C21.1636 19.4654 21.47 19.1614 21.47 18.7854C21.47 18.4095 21.1637 18.1054 20.7858 18.1054H5.22005C4.84223 18.1054 4.53581 18.4095 4.53581 18.7854C4.53581 19.1614 4.84212 19.4654 5.22005 19.4654H5.21993ZM5.21993 14.8755H20.7858C21.1636 14.8755 21.47 14.5714 21.47 14.1955C21.47 13.8195 21.1637 13.5154 20.7858 13.5154H5.22005C4.84223 13.5154 4.53581 13.8195 4.53581 14.1955C4.53581 14.5714 4.84212 14.8755 5.22005 14.8755H5.21993Z" fill="white"/>
<path d="M17.7923 6.0785V0.397217L25.6035 8.16041H19.8867C18.7317 8.16041 17.7924 7.22673 17.7924 6.07862L17.7923 6.0785Z" fill="url(#paint0_linear_1_23782)"/>
</g>
<defs>
<linearGradient id="paint0_linear_1_23782" x1="19.3779" y1="2.50881" x2="24.0886" y2="7.49852" gradientUnits="userSpaceOnUse">
<stop stop-color="#DF2908"/>
<stop offset="1" stop-color="#F58600"/>
</linearGradient>
<clipPath id="clip0_1_23782">
<rect width="26" height="34" fill="white" transform="matrix(-1 0 0 1 26 0)"/>
</clipPath>
</defs>
</svg>
