<svg width="17" height="17" viewBox="0 0 17 17" fill="none" xmlns="http://www.w3.org/2000/svg">
<g clip-path="url(#clip0_1_20385)">
<path fill-rule="evenodd" clip-rule="evenodd" d="M5.17707 0.108398H11.3392C12.6629 0.108398 13.9149 0.669874 14.7952 1.55126C15.6755 2.4914 16.2428 3.69923 16.2428 5.07027V11.1682C16.2428 12.5523 15.6755 13.747 14.7952 14.6284C13.9214 15.5686 12.6629 16.0713 11.3392 16.0713H5.17707C3.85987 16.0713 2.60136 15.5686 1.72105 14.6284C0.840746 13.747 0.273438 12.5523 0.273438 11.1682V5.07027C0.273438 3.69923 0.840746 2.4914 1.72105 1.55126C2.60136 0.669874 3.85987 0.108398 5.17707 0.108398ZM15.3625 4.07137C13.5367 3.88204 10.5828 3.94079 8.50919 4.45004H8.19619C6.05737 3.94079 3.03825 3.87551 1.21895 4.07137L1.08854 4.31946C1.21895 3.50989 1.65584 2.68727 2.22315 2.12579C2.97304 1.36192 4.04245 0.931025 5.17055 0.931025H11.3327C12.4673 0.931025 13.4715 1.36192 14.2279 2.12579C14.7887 2.62851 15.1669 3.32056 15.3625 4.07137ZM6.68989 8.0931C7.31588 7.77972 7.56367 6.95709 7.56367 6.95709C7.56367 6.95709 7.81146 6.33686 8.07229 5.64481C8.07229 5.57299 8.19619 5.51423 8.25488 5.45547C8.38529 5.51423 8.50267 5.51423 8.50267 5.64481C8.69177 6.33686 9.01129 6.95709 9.01129 6.95709C9.01129 6.95709 9.32428 7.77972 9.88507 8.0931C10.5828 8.40648 11.1436 8.40648 12.1543 8.40648C13.0933 8.40648 13.9736 8.15839 13.9736 8.15839C13.9736 8.15839 14.6648 8.04087 14.9778 6.90486C15.2321 5.84067 15.356 5.52076 15.356 5.52076C15.356 5.52076 15.356 5.462 15.4734 5.33143V11.1747C15.4734 12.3107 14.9713 13.3684 14.2214 14.1322C13.465 14.883 12.4608 15.327 11.3262 15.327H5.17707C4.04245 15.327 2.97956 14.883 2.22967 14.1322C1.46674 13.3684 1.03637 12.3042 1.03637 11.1747V5.3249C1.09506 5.39671 1.16026 5.51423 1.16026 5.51423C1.16026 5.51423 1.34937 5.83414 1.60368 6.89833C1.91667 8.03434 2.60788 8.15186 2.60788 8.15186C2.60788 8.15186 3.48166 8.39995 4.42718 8.39995C5.37269 8.39995 5.99216 8.34119 6.68989 8.08657V8.0931ZM4.86407 10.228V10.8613C6.50079 12.4935 10.022 12.4935 11.587 10.8613V10.228C11.587 10.228 10.3937 11.4881 8.25488 11.4881C6.11606 11.4881 4.85755 10.228 4.85755 10.228H4.86407Z" fill="black"/>
</g>
<defs>
<clipPath id="clip0_1_20385">
<rect width="15.9629" height="15.9629" fill="white" transform="translate(0.273438 0.108398)"/>
</clipPath>
</defs>
</svg>
