<svg width="36" height="30" viewBox="0 0 36 30" fill="none" xmlns="http://www.w3.org/2000/svg">
<g clip-path="url(#clip0_1_23786)">
<path fill-rule="evenodd" clip-rule="evenodd" d="M2.15735 9.996H27.9371V27.818H2.15735V9.996ZM2.85638 25.1606L11.7027 18.4925C13.7154 20.1016 14.7278 20.9062 14.7278 20.9062C18.9461 17.7489 21.0552 16.1764 21.0552 16.1764L27.238 20.7477V27.1232H2.84433V25.1728L2.85638 25.1606ZM8.71376 0.0366302L34.4935 5.37592C35.5179 5.58316 36.1808 6.60713 35.9638 7.6311L32.3241 25.6116C32.2035 26.2211 31.8058 26.6965 31.2876 26.9525V19.8578L33.7944 7.46044L8.54503 2.23086L7.66522 6.60713H5.45966L6.4841 1.53602C6.68899 0.499857 7.70137 -0.170603 8.71376 0.0488204V0.0366302ZM1.8922 7.81396H28.2022C29.2387 7.81396 30.0944 8.67946 30.0944 9.72781V28.0862C30.0944 29.1346 29.2387 30.0001 28.2022 30.0001H1.8922C0.855708 30.0001 0 29.1346 0 28.0862V9.72781C0 8.67946 0.855708 7.81396 1.8922 7.81396Z" fill="white"/>
<path fill-rule="evenodd" clip-rule="evenodd" d="M6.50844 11.9464C7.84623 11.9464 8.93093 13.0435 8.93093 14.3966C8.93093 15.7497 7.84623 16.8469 6.50844 16.8469C5.17064 16.8469 4.08594 15.7497 4.08594 14.3966C4.08594 13.0435 5.17064 11.9464 6.50844 11.9464Z" fill="url(#paint0_linear_1_23786)"/>
</g>
<defs>
<linearGradient id="paint0_linear_1_23786" x1="7.9474" y1="13.2793" x2="4.97128" y2="16.3769" gradientUnits="userSpaceOnUse">
<stop stop-color="#DF2908"/>
<stop offset="1" stop-color="#F58600"/>
</linearGradient>
<clipPath id="clip0_1_23786">
<rect width="36" height="30" fill="white"/>
</clipPath>
</defs>
</svg>
