<svg xmlns="http://www.w3.org/2000/svg" width="30" height="30" viewBox="0 0 30 30" fill="none">
  <g clip-path="url(#clip0_1_19108)">
    <path d="M23.8465 20.9174C21.9895 20.9174 20.4775 19.4054 20.4775 17.5484C20.4775 15.6914 21.9895 14.1794 23.8465 14.1794C25.7035 14.1794 27.217 15.6914 27.217 17.5484C27.217 19.4054 25.705 20.9174 23.8465 20.9174Z" fill="white"/>
    <path d="M6.15273 20.9174C4.29423 20.9174 2.78223 19.4054 2.78223 17.5484C2.78223 15.6914 4.29423 14.1794 6.15273 14.1794C8.01123 14.1794 9.52173 15.6914 9.52173 17.5484C9.52173 19.4054 8.00973 20.9174 6.15273 20.9174Z" fill="white"/>
    <path d="M20.8587 2.34304C19.7487 2.34304 18.7497 1.72654 18.2532 0.732035L18.1302 0.484535C17.9802 0.187535 17.6757 -0.00146484 17.3427 -0.00146484H12.6567C12.3237 -0.00146484 12.0192 0.186035 11.8692 0.484535L11.7462 0.732035C11.2497 1.72504 10.2507 2.34304 9.14072 2.34304C8.65472 2.34304 8.26172 2.73604 8.26172 3.22204V8.23804C8.26172 10.2105 8.88422 12.0885 10.0602 13.671C11.2377 15.2535 12.8577 16.389 14.7477 16.956C14.8302 16.9815 14.9142 16.9935 14.9997 16.9935C15.0852 16.9935 15.1692 16.9815 15.2517 16.956C17.1417 16.389 18.7617 15.2535 19.9392 13.671C21.1152 12.0885 21.7377 10.2105 21.7377 8.23804V3.22204C21.7377 2.73604 21.3447 2.34304 20.8587 2.34304ZM18.1077 7.45954L14.7927 10.7745C14.6202 10.9455 14.3967 11.0325 14.1717 11.0325C13.9467 11.0325 13.7217 10.947 13.5492 10.7745L11.8917 9.11703C11.5497 8.77353 11.5497 8.21704 11.8917 7.87354C12.2352 7.53004 12.7917 7.53004 13.1352 7.87354L14.1717 8.90854L16.8642 6.21603C17.2077 5.87253 17.7642 5.87253 18.1077 6.21603C18.4497 6.55954 18.4497 7.11603 18.1077 7.45954Z" fill="#8E8E8E"/>
    <path d="M27.4421 21.201C26.5151 22.1115 25.2461 22.6755 23.8481 22.6755C22.4501 22.6755 21.1751 22.11 20.2481 21.1965C19.7576 21.5505 19.3196 21.975 18.9521 22.458L19.4351 22.881C20.8991 24.1635 21.7376 26.01 21.7376 27.9495V30H29.1206C29.6066 30 29.9996 29.607 29.9996 29.121V26.1915C29.9996 24.1395 28.9901 22.32 27.4421 21.201Z" fill="white"/>
    <path d="M2.5575 21.201C1.0095 22.32 0 24.1395 0 26.1915V29.121C0 29.607 0.393 30 0.879 30H8.262V27.9495C8.262 26.01 9.1005 24.1635 10.5645 22.881L11.0475 22.458C10.68 21.9765 10.242 21.5505 9.7515 21.1965C8.8245 22.11 7.554 22.6755 6.153 22.6755C4.752 22.6755 3.4845 22.1115 2.5575 21.201Z" fill="white"/>
    <path d="M18.277 24.2026C17.449 25.0651 16.2865 25.6051 14.9995 25.6051C13.7125 25.6051 12.55 25.0666 11.722 24.2026C10.6795 25.1161 10.0195 26.4571 10.0195 27.9481V29.9986H19.9795V27.9481C19.9795 26.4556 19.3195 25.1161 18.277 24.2026Z" fill="#8E8E8E"/>
    <path d="M15.0003 23.847C13.4658 23.847 12.2178 22.599 12.2178 21.0645C12.2178 19.53 13.4658 18.2805 15.0003 18.2805C16.5348 18.2805 17.7828 19.5285 17.7828 21.0645C17.7828 22.6005 16.5348 23.847 15.0003 23.847Z" fill="#8E8E8E"/>
  </g>
  <defs>
    <clipPath id="clip0_1_19108">
      <rect width="30" height="30" fill="white"/>
    </clipPath>
  </defs>
</svg>