<svg width="30" height="34" viewBox="0 0 30 34" fill="none" xmlns="http://www.w3.org/2000/svg">
<g clip-path="url(#clip0_1_23790)">
<path d="M15.0004 0C9.38129 0 4.82617 4.43125 4.82617 9.89753C4.82617 16.1531 15.0004 30.0782 15.0004 30.0782C15.0004 30.0782 25.1745 16.1531 25.1745 9.89753C25.1745 4.43125 20.6194 0 15.0004 0Z" fill="white"/>
<path d="M15.0003 15.1381C17.8411 15.1381 20.1441 12.8978 20.1441 10.1342C20.1441 7.37059 17.8411 5.13025 15.0003 5.13025C12.1594 5.13025 9.85645 7.37059 9.85645 10.1342C9.85645 12.8978 12.1594 15.1381 15.0003 15.1381Z" fill="#454545"/>
<path d="M15 34C11.1076 34 7.43936 33.5478 4.67097 32.7267C1.61524 31.8202 0 30.5657 0 29.0989C0 27.166 2.88086 25.5798 7.90387 24.7467C8.26773 24.6863 8.61265 24.9243 8.67468 25.278C8.73671 25.6318 8.49209 25.9675 8.12846 26.0279C3.46159 26.8018 1.33598 28.1624 1.33598 29.0989C1.33598 30.6027 6.53422 32.7002 15 32.7002C23.4658 32.7002 28.664 30.6027 28.664 29.0989C28.664 28.1624 26.5384 26.8019 21.8715 26.0279C21.5079 25.9675 21.2633 25.6318 21.3253 25.278C21.3874 24.9242 21.7324 24.6863 22.0961 24.7467C27.1191 25.5796 30 27.166 30 29.0989C30 30.5657 28.3848 31.8202 25.329 32.7265C22.5606 33.5477 18.8924 33.9999 15 33.9999V34Z" fill="white"/>
<path d="M16.6264 11.7168C17.5249 10.8428 17.5249 9.42575 16.6264 8.55174C15.728 7.67772 14.2713 7.67772 13.3729 8.55174C12.4744 9.42575 12.4744 10.8428 13.3729 11.7168C14.2713 12.5908 15.728 12.5908 16.6264 11.7168Z" fill="url(#paint0_linear_1_23790)"/>
</g>
<defs>
<linearGradient id="paint0_linear_1_23790" x1="15.2241" y1="8.47261" x2="15.3227" y2="12.4164" gradientUnits="userSpaceOnUse">
<stop stop-color="#DF2908"/>
<stop offset="1" stop-color="#F58600"/>
</linearGradient>
<clipPath id="clip0_1_23790">
<rect width="30" height="34" fill="white"/>
</clipPath>
</defs>
</svg>
