<svg width="36" height="36" viewBox="0 0 36 36" fill="none" xmlns="http://www.w3.org/2000/svg">
<g clip-path="url(#clip0_1_23821)">
<path d="M35.6589 20.6603C34.2458 29.3998 26.6815 36.0001 17.6798 36.0001C12.9423 36.0001 8.44789 34.1704 5.02543 30.8482L3.78256 29.6416L0 33.4397L0.158018 22.7409H10.6563L6.58206 26.8311L7.89178 28.0781C10.5576 30.6155 14.0332 32.0128 17.6798 32.0128C24.5255 32.0128 30.2605 27.2346 31.6196 20.661H35.6589V20.6603Z" fill="white"/>
<path d="M18.3207 0C23.0582 0 27.5526 1.83043 30.9735 5.15266L32.2164 6.35922L36.0005 2.56032L35.8425 13.2592H25.3441L29.4184 9.16893L28.1087 7.92195C25.4429 5.38452 21.9673 3.98729 18.3207 3.98729C11.475 3.98729 5.74002 8.76548 4.38092 15.339H0.34082C1.75387 6.60023 9.31898 0 18.3207 0Z" fill="white"/>
<path d="M12.4648 10.5577V26.1499C12.4648 26.3307 12.6593 26.4443 12.8158 26.3543L14.295 25.5017C14.434 25.4216 14.5198 25.2729 14.5198 25.1119V14.1309C14.5198 13.8289 14.845 13.6405 15.1056 13.7915L19.2292 16.1817C19.4898 16.3327 19.4898 16.7095 19.2292 16.8605L15.7445 18.8808C15.6237 18.951 15.5492 19.0799 15.5492 19.2202V20.6976C15.5492 20.7662 15.5675 20.8341 15.6017 20.8936C15.7095 21.0812 15.9481 21.1452 16.135 21.0369L23.3392 16.8613C23.5998 16.7103 23.5998 16.3335 23.3392 16.1825L13.0513 10.2191C12.7908 10.0681 12.4656 10.2565 12.4656 10.5585L12.4648 10.5577Z" fill="url(#paint0_linear_1_23821)"/>
<path d="M20.6966 22.3343C20.5052 22.223 20.5052 21.9461 20.6966 21.8348L23.1968 20.3857C23.4057 20.2644 23.5341 20.0409 23.5341 19.7992V18.7169C23.5341 18.3424 23.1299 18.1083 22.807 18.2952L16.9976 21.6624C16.674 21.85 16.674 22.3183 16.9976 22.5059L22.807 25.8731C23.1307 26.0608 23.5341 25.8266 23.5341 25.4514V24.3691C23.5341 24.1274 23.4057 23.9039 23.1968 23.7826L20.6966 22.3335V22.3343Z" fill="#FDC200"/>
<path d="M16.8843 26.3848C17.7184 26.3848 18.3946 25.706 18.3946 24.8686C18.3946 24.0312 17.7184 23.3524 16.8843 23.3524C16.0502 23.3524 15.374 24.0312 15.374 24.8686C15.374 25.706 16.0502 26.3848 16.8843 26.3848Z" fill="#FDC200"/>
</g>
<defs>
<linearGradient id="paint0_linear_1_23821" x1="9.6228" y1="12.8931" x2="17.5592" y2="20.7985" gradientUnits="userSpaceOnUse">
<stop stop-color="#F69F00"/>
<stop offset="0.26" stop-color="#F28A00"/>
<stop offset="0.55" stop-color="#EF7901"/>
<stop offset="0.77" stop-color="#EE7402"/>
<stop offset="1" stop-color="#E74210"/>
</linearGradient>
<clipPath id="clip0_1_23821">
<rect width="36" height="36" fill="white"/>
</clipPath>
</defs>
</svg>
