<svg width="159" height="159" viewBox="0 0 159 159" fill="none" xmlns="http://www.w3.org/2000/svg">
<path opacity="0.074" d="M79.12 158.667C122.817 158.667 158.24 123.243 158.24 79.5466C158.24 35.8499 122.817 0.426636 79.12 0.426636C35.4232 0.426636 0 35.8499 0 79.5466C0 123.243 35.4232 158.667 79.12 158.667Z" fill="url(#paint0_linear_1_2851)"/>
<path opacity="0.256" d="M79.1201 147.2C116.484 147.2 146.773 116.911 146.773 79.5466C146.773 42.1827 116.484 11.8933 79.1201 11.8933C41.7562 11.8933 11.4668 42.1827 11.4668 79.5466C11.4668 116.911 41.7562 147.2 79.1201 147.2Z" fill="url(#paint1_linear_1_2851)"/>
<path d="M79.1203 135.733C110.151 135.733 135.307 110.578 135.307 79.5466C135.307 48.5156 110.151 23.36 79.1203 23.36C48.0892 23.36 22.9336 48.5156 22.9336 79.5466C22.9336 110.578 48.0892 135.733 79.1203 135.733Z" fill="url(#paint2_linear_1_2851)"/>
<path d="M56.3457 43.0637V111.758C56.3469 111.94 56.3958 112.118 56.4875 112.275C56.5792 112.432 56.7105 112.562 56.8683 112.652C57.0261 112.742 57.2049 112.789 57.3866 112.789C57.5683 112.788 57.7467 112.74 57.9039 112.648L64.4461 108.891C64.7479 108.717 64.9986 108.467 65.1729 108.166C65.3473 107.865 65.439 107.523 65.4389 107.175V58.8059C65.4391 58.503 65.519 58.2055 65.6705 57.9433C65.822 57.681 66.0398 57.4632 66.3021 57.3116C66.5643 57.1601 66.8618 57.0802 67.1647 57.0799C67.4676 57.0796 67.7652 57.159 68.0277 57.31L86.2675 67.8412C86.5296 67.993 86.7471 68.211 86.8983 68.4733C87.0496 68.7357 87.1292 69.0332 87.1292 69.336C87.1292 69.6388 87.0496 69.9363 86.8983 70.1986C86.7471 70.461 86.5296 70.679 86.2675 70.8307L70.8525 79.7347C70.5899 79.8863 70.3719 80.1044 70.2203 80.367C70.0687 80.6295 69.9888 80.9274 69.9888 81.2306V87.7372C69.9861 88.0396 70.0629 88.3374 70.2114 88.6009C70.4405 88.997 70.8174 89.286 71.2593 89.4045C71.7013 89.5231 72.1722 89.4614 72.5688 89.233L104.434 70.8352C104.696 70.6834 104.913 70.4654 105.065 70.2031C105.216 69.9407 105.296 69.6432 105.296 69.3404C105.296 69.0376 105.216 68.7401 105.065 68.4778C104.913 68.2154 104.696 67.9974 104.434 67.8457L58.9345 41.5678C58.672 41.4167 58.3744 41.3374 58.0715 41.3376C57.7686 41.3379 57.4711 41.4178 57.2089 41.5694C56.9466 41.7209 56.7288 41.9387 56.5773 42.201C56.4258 42.4633 56.3459 42.7608 56.3457 43.0637V43.0637Z" fill="white"/>
<path d="M92.7551 94.9493C92.5624 94.8376 92.4024 94.6774 92.2912 94.4844C92.18 94.2914 92.1215 94.0727 92.1215 93.8499C92.1215 93.6272 92.18 93.4082 92.2912 93.2152C92.4024 93.0222 92.5624 92.8619 92.7551 92.7502L103.814 86.366C104.267 86.1039 104.644 85.7273 104.906 85.2736C105.167 84.82 105.305 84.3053 105.305 83.7816V79.0157C105.305 78.6396 105.205 78.2702 105.017 77.9446C104.829 77.619 104.558 77.3484 104.232 77.1604C103.906 76.9723 103.537 76.8734 103.161 76.8732C102.784 76.873 102.415 76.9716 102.089 77.1593L76.3919 91.9957C76.066 92.1841 75.7955 92.4549 75.6074 92.7809C75.4193 93.107 75.3203 93.4768 75.3203 93.8532C75.3203 94.2296 75.4193 94.5994 75.6074 94.9254C75.7955 95.2515 76.066 95.5223 76.3919 95.7107L102.089 110.547C102.415 110.735 102.784 110.833 103.161 110.833C103.537 110.833 103.906 110.734 104.232 110.546C104.558 110.358 104.829 110.087 105.017 109.762C105.205 109.436 105.305 109.067 105.305 108.691V103.922C105.305 103.399 105.167 102.884 104.906 102.431C104.644 101.977 104.267 101.6 103.814 101.338L92.7551 94.9493Z" fill="white"/>
<path d="M75.8931 112.795C79.5825 112.795 82.5733 109.804 82.5733 106.115C82.5733 102.426 79.5825 99.4348 75.8931 99.4348C72.2037 99.4348 69.2129 102.426 69.2129 106.115C69.2129 109.804 72.2037 112.795 75.8931 112.795Z" fill="white"/>
<defs>
<linearGradient id="paint0_linear_1_2851" x1="79.12" y1="0.426636" x2="79.12" y2="158.667" gradientUnits="userSpaceOnUse">
<stop stop-color="#DF2908"/>
<stop offset="1" stop-color="#F58600"/>
</linearGradient>
<linearGradient id="paint1_linear_1_2851" x1="79.1201" y1="11.8933" x2="79.1201" y2="147.2" gradientUnits="userSpaceOnUse">
<stop stop-color="#DF2908"/>
<stop offset="1" stop-color="#F58600"/>
</linearGradient>
<linearGradient id="paint2_linear_1_2851" x1="79.1203" y1="23.36" x2="79.1203" y2="135.733" gradientUnits="userSpaceOnUse">
<stop stop-color="#DF2908"/>
<stop offset="1" stop-color="#F58600"/>
</linearGradient>
</defs>
</svg>
