<svg width="72" height="72" viewBox="0 0 72 72" fill="none" xmlns="http://www.w3.org/2000/svg">
<g id="Group" filter="url(#filter0_d_1_5166)">
<path id="Rectangle 166" d="M55.3828 2.99951H15.7466C10.3637 2.99951 6 7.36321 6 12.7461V52.3823C6 57.7652 10.3637 62.1289 15.7466 62.1289H55.3828C60.7657 62.1289 65.1294 57.7652 65.1294 52.3823V12.7461C65.1294 7.36321 60.7657 2.99951 55.3828 2.99951Z" fill="white"/>
<g id="Group 42925">
<g id="Group_2">
<path id="Vector" d="M32.6843 38.5551C30.5852 37.6974 28.6803 36.4922 27.0397 35.074C27.0489 35.0761 28.5987 35.4949 33.3451 34.3024C38.109 33.1056 42.5106 29.8502 43.4656 28.5338C44.1657 27.5691 43.1765 27.0463 42.7522 27.293C42.3268 27.5397 42.3165 27.653 41.0919 28.6104C40.1079 29.3799 39.1436 29.8492 38.8018 30.0046C38.7316 30.0361 38.6501 30.0014 38.6243 29.9279L38.6201 29.9164C38.5984 29.8544 38.6243 29.7862 38.681 29.7537C39.7507 29.15 42.0418 27.2604 42.6159 26.387C43.2798 25.3782 42.334 24.3662 41.5741 25.0695C40.2628 26.2831 38.299 27.8231 37.8809 28.1475C37.8014 28.2094 37.727 28.0856 37.727 28.0856C37.6929 28.0278 37.7043 27.9543 37.7559 27.9123C38.965 26.8982 41.2086 24.5289 41.4068 23.4843C41.6092 22.4125 40.617 22.043 40.2019 22.4755C39.9944 22.6918 39.8478 22.929 38.774 24.2055C37.885 25.2627 36.8752 26.1413 36.5531 26.4132C36.4963 26.4615 36.4116 26.4521 36.3652 26.3922C36.3239 26.3387 36.3269 26.2631 36.3744 26.2148C37.2376 25.3267 39.2014 22.95 39.5163 21.6567C39.7352 20.757 38.5809 20.1702 38.0223 20.989C37.821 21.284 37.4854 21.705 36.9702 22.3999C35.7859 23.9977 34.4426 24.8459 34.4426 24.8459C34.7121 20.6604 32.3787 20.6762 32.0772 21.3984C31.8852 21.8593 32.0245 22.359 31.9843 23.6943C31.9481 24.8711 31.3483 27.7181 28.2539 28.073C27.431 28.1674 26.4088 28.0918 25.3691 27.8368C21.808 26.9644 19.9278 22.9259 21.6418 19.6337C21.65 19.6169 21.6593 19.6012 21.6676 19.5844C24.3387 14.5496 32.1051 14.0499 34.8732 20.7297C37.6413 14.0499 45.4077 14.5496 48.0788 19.5844C51.1691 25.4086 45.7846 34.9868 37.0662 38.5519C35.6589 39.1272 34.0937 39.1293 32.6864 38.554L32.6843 38.5551Z" fill="url(#paint0_linear_1_5166)"/>
<path id="Vector_2" opacity="0.22" d="M47.5283 18.7128C46.9016 17.852 46.1076 17.1665 45.2207 16.6731C47.074 18.9574 45.8236 23.567 42.6332 25.1008C42.8728 25.3937 42.9368 25.8902 42.6105 26.3878C42.0364 27.2612 39.7453 29.1508 38.6757 29.7545C38.6189 29.787 38.592 29.8553 38.6148 29.9172L38.6189 29.9287C38.6447 30.0022 38.7263 30.0379 38.7965 30.0064C39.1372 29.8511 40.1026 29.3808 41.0876 28.6113C42.3131 27.6539 42.3224 27.5405 42.7478 27.2938C43.1732 27.0471 44.1613 27.5699 43.4613 28.5346C42.785 29.4668 40.3803 31.3701 37.3438 32.8272L38.3267 34.4754C38.3267 34.4754 42.8882 32.8587 42.9853 32.7926C43.0824 32.7264 47.7761 19.6597 47.7761 19.6597L47.5272 18.7128H47.5283Z" fill="#AF234B"/>
<path id="Vector_3" d="M48.0754 19.5855C47.3981 18.3079 46.3914 17.3232 45.2226 16.6724C48.5101 19.4302 45.7863 27.0033 41.8401 30.118C39.9786 31.5867 36.6291 33.5655 33.3437 34.3025C27.7001 35.5696 23.3027 33.8752 23.3027 33.8752C23.3027 33.8752 25.5102 35.8845 28.7667 36.4178C30.0026 37.2797 31.351 38.0208 32.7893 38.5982C34.1264 39.1346 35.6183 39.1336 36.9544 38.5971C45.7368 35.0678 51.178 25.4339 48.0754 19.5855Z" fill="url(#paint1_linear_1_5166)"/>
<path id="Vector_4" opacity="0.22" d="M25.3686 27.8376C26.4073 28.0927 27.4305 28.1683 28.2524 28.0738C30.1377 27.8575 31.0959 26.7154 31.5667 25.59C26.2834 27.9856 20.2743 22.9603 23.7053 17.2012C22.8855 17.8153 22.1813 18.6163 21.6671 19.5852C21.6589 19.601 21.6496 19.6178 21.6413 19.6346C19.9284 22.9267 21.8076 26.9652 25.3686 27.8376Z" fill="#AF234B"/>
<path id="Vector_5" opacity="0.22" d="M47.8906 28.1204C45.9392 32.162 38.0974 37.7962 28.7646 36.4189C29.983 37.2682 31.3118 38.0009 32.7274 38.5752C34.1088 39.1358 35.6545 39.1274 37.0349 38.5647C42.1313 36.4893 46.0909 32.3594 47.8916 28.1204H47.8906Z" fill="#AF234B"/>
</g>
</g>
<g id="Group_3">
<g id="Give Back">
<path d="M21.0801 49.2077C20.5041 49.6957 19.7121 50.0957 18.6881 50.0957C16.9441 50.0957 15.7441 48.8717 15.7441 47.2157V47.1997C15.7441 45.6077 16.9841 44.3037 18.6801 44.3037C19.6881 44.3037 20.2961 44.5757 20.8801 45.0717L20.1041 46.0077C19.6721 45.6477 19.2881 45.4397 18.6401 45.4397C17.7441 45.4397 17.0321 46.2317 17.0321 47.1837V47.1997C17.0321 48.2237 17.7361 48.9757 18.7281 48.9757C19.1761 48.9757 19.5761 48.8637 19.8881 48.6397V47.8397H18.6481V46.7757H21.0801V49.2077Z" fill="black"/>
<path d="M23.4416 45.2397H22.1616V44.1597H23.4416V45.2397ZM23.4096 49.9997H22.1936V45.7117H23.4096V49.9997Z" fill="black"/>
<path d="M28.6476 45.7117L26.9596 50.0317H25.8556L24.1676 45.7117H25.4556L26.4156 48.5837L27.3836 45.7117H28.6476Z" fill="black"/>
<path d="M33.1063 47.9757C33.1063 48.0957 33.0983 48.1677 33.0903 48.2797H30.1063C30.2263 48.8317 30.6103 49.1197 31.1543 49.1197C31.5623 49.1197 31.8583 48.9917 32.1943 48.6797L32.8903 49.2957C32.4903 49.7917 31.9143 50.0957 31.1383 50.0957C29.8503 50.0957 28.8983 49.1917 28.8983 47.8797V47.8637C28.8983 46.6397 29.7703 45.6317 31.0183 45.6317C32.4503 45.6317 33.1063 46.7437 33.1063 47.9597V47.9757ZM31.9223 47.5197C31.8503 46.9757 31.5303 46.6077 31.0183 46.6077C30.5143 46.6077 30.1863 46.9677 30.0903 47.5197H31.9223Z" fill="black"/>
<path d="M41.299 48.4637C41.299 49.4877 40.467 49.9997 39.203 49.9997H36.539V44.3997H39.139C40.283 44.3997 40.987 44.9677 40.987 45.8477V45.8637C40.987 46.4957 40.651 46.8477 40.251 47.0717C40.899 47.3197 41.299 47.6957 41.299 48.4477V48.4637ZM39.763 46.0717V46.0557C39.763 45.6877 39.475 45.4797 38.955 45.4797H37.739V46.6637H38.875C39.419 46.6637 39.763 46.4877 39.763 46.0717ZM40.075 48.3117V48.2957C40.075 47.9197 39.795 47.6877 39.163 47.6877H37.739V48.9197H39.203C39.747 48.9197 40.075 48.7277 40.075 48.3117Z" fill="black"/>
<path d="M45.8725 49.9997H44.6965V49.5357C44.4005 49.8637 43.9925 50.0797 43.4005 50.0797C42.5925 50.0797 41.9285 49.6157 41.9285 48.7677V48.7517C41.9285 47.8157 42.6405 47.3837 43.6565 47.3837C44.0885 47.3837 44.4005 47.4557 44.7045 47.5597V47.4877C44.7045 46.9837 44.3925 46.7037 43.7845 46.7037C43.3205 46.7037 42.9925 46.7917 42.6005 46.9357L42.2965 46.0077C42.7685 45.7997 43.2325 45.6637 43.9605 45.6637C45.2885 45.6637 45.8725 46.3517 45.8725 47.5117V49.9997ZM44.7205 48.4877V48.2717C44.5125 48.1757 44.2405 48.1117 43.9445 48.1117C43.4245 48.1117 43.1045 48.3197 43.1045 48.7037V48.7197C43.1045 49.0477 43.3765 49.2397 43.7685 49.2397C44.3365 49.2397 44.7205 48.9277 44.7205 48.4877Z" fill="black"/>
<path d="M50.6948 49.3117C50.2788 49.7677 49.7988 50.0957 48.9428 50.0957C47.6548 50.0957 46.7108 49.1037 46.7108 47.8797V47.8637C46.7108 46.6397 47.6468 45.6317 48.9588 45.6317C49.7668 45.6317 50.2708 45.9037 50.6708 46.3517L49.9268 47.1517C49.6548 46.8637 49.3828 46.6797 48.9508 46.6797C48.3428 46.6797 47.9108 47.2157 47.9108 47.8477V47.8637C47.9108 48.5197 48.3348 49.0477 48.9988 49.0477C49.4068 49.0477 49.6868 48.8717 49.9828 48.5917L50.6948 49.3117Z" fill="black"/>
<path d="M55.6411 49.9997H54.2491L53.1291 48.2477L52.7051 48.6957V49.9997H51.4891V44.1597H52.7051V47.2717L54.1291 45.7117H55.5851L53.9531 47.3997L55.6411 49.9997Z" fill="black"/>
</g>
</g>
</g>
<defs>
<filter id="filter0_d_1_5166" x="0" y="-0.000488281" width="71.1289" height="71.1294" filterUnits="userSpaceOnUse" color-interpolation-filters="sRGB">
<feFlood flood-opacity="0" result="BackgroundImageFix"/>
<feColorMatrix in="SourceAlpha" type="matrix" values="0 0 0 0 0 0 0 0 0 0 0 0 0 0 0 0 0 0 127 0" result="hardAlpha"/>
<feOffset dy="3"/>
<feGaussianBlur stdDeviation="3"/>
<feColorMatrix type="matrix" values="0 0 0 0 0 0 0 0 0 0 0 0 0 0 0 0 0 0 0.031 0"/>
<feBlend mode="normal" in2="BackgroundImageFix" result="effect1_dropShadow_1_5166"/>
<feBlend mode="normal" in="SourceGraphic" in2="effect1_dropShadow_1_5166" result="shape"/>
</filter>
<linearGradient id="paint0_linear_1_5166" x1="36.4333" y1="29.1679" x2="33.5774" y2="16.7157" gradientUnits="userSpaceOnUse">
<stop stop-color="#FF6D00"/>
<stop offset="1" stop-color="#F2DF00"/>
</linearGradient>
<linearGradient id="paint1_linear_1_5166" x1="30.0449" y1="37.2713" x2="48.7393" y2="20.251" gradientUnits="userSpaceOnUse">
<stop stop-color="#FF6D00"/>
<stop offset="1" stop-color="#F2DF00"/>
</linearGradient>
</defs>
</svg>
