<svg width="45" height="36" viewBox="0 0 45 36" fill="none" xmlns="http://www.w3.org/2000/svg">
<path d="M2.76673 30.7445H0.904297V34.9639H2.01113V33.796H2.76673C3.84888 33.796 4.47222 33.2183 4.47222 32.2249C4.47222 31.2857 3.84951 30.7439 2.76673 30.7439V30.7445ZM2.71231 32.9179H2.01113V31.6233H2.71231C3.15972 31.6233 3.41982 31.8463 3.41982 32.2614C3.41982 32.6766 3.15972 32.9179 2.71231 32.9179Z" fill="black"/>
<path d="M6.72792 30.7444V32.466H8.43911V30.7444H9.54594V34.9638H8.43911V33.3448H6.72792V34.9638H5.62109V30.7444H6.72792Z" fill="black"/>
<path d="M12.0795 30.7444H10.9727V34.9638H12.0795V30.7444Z" fill="black"/>
<path d="M14.6127 30.7444V34.0245H16.4087V34.9638H13.5059V30.7444H14.6127Z" fill="black"/>
<path d="M20.592 31.4799H18.2119V32.8059H20.3414V33.2053H18.2119V34.5647H20.6199V34.9641H17.7715V31.0798H20.592V31.4792V31.4799Z" fill="black"/>
<path d="M23.691 34.9643V34.3872C23.6315 34.4723 23.5657 34.5535 23.4929 34.6316C23.4202 34.7091 23.3398 34.7778 23.2506 34.837C23.1613 34.8962 23.062 34.9422 22.9525 34.9756C22.843 35.009 22.7209 35.0254 22.5874 35.0254C22.4127 35.0254 22.2437 34.992 22.0805 34.9258C21.9172 34.8591 21.7704 34.762 21.64 34.6348C21.5096 34.5069 21.4059 34.3507 21.328 34.1661C21.2502 33.9809 21.2109 33.7705 21.2109 33.5336C21.2109 33.2968 21.2502 33.0864 21.328 32.9012C21.4059 32.716 21.5103 32.5597 21.64 32.4325C21.7697 32.3046 21.9165 32.207 22.0805 32.1383C22.2437 32.0696 22.4127 32.0356 22.5874 32.0356C22.7209 32.0356 22.8437 32.052 22.955 32.0854C23.0664 32.1188 23.167 32.1629 23.2563 32.2183C23.3455 32.2737 23.4265 32.3386 23.4986 32.4123C23.5708 32.4867 23.6353 32.5641 23.691 32.6454V30.9143H24.1201V34.9649H23.691V34.9643ZM23.6214 33.0744C23.5638 32.9383 23.486 32.8224 23.3873 32.7267C23.2885 32.6309 23.1772 32.5566 23.0531 32.503C22.9285 32.4495 22.7994 32.423 22.6658 32.423C22.5247 32.423 22.3924 32.4476 22.2703 32.4974C22.1475 32.5471 22.0406 32.619 21.9501 32.7128C21.859 32.8067 21.7868 32.9226 21.733 33.0605C21.6792 33.1985 21.652 33.3541 21.652 33.5273C21.652 33.7006 21.6786 33.8492 21.733 33.9853C21.7868 34.1214 21.8602 34.2386 21.9533 34.3362C22.0463 34.4338 22.1539 34.5082 22.2766 34.5598C22.3994 34.6115 22.5291 34.6373 22.6671 34.6373C22.805 34.6373 22.9297 34.6109 23.0544 34.5573C23.1791 34.5038 23.2904 34.4294 23.3885 34.3337C23.4872 34.2379 23.5651 34.1214 23.6227 33.9828C23.6803 33.8448 23.7094 33.693 23.7094 33.5273C23.7094 33.3617 23.6803 33.2111 23.6227 33.0744H23.6214Z" fill="black"/>
<path d="M27.1248 32.0955H27.5481V34.9643H27.1248V34.4647C27.028 34.6203 26.902 34.7526 26.7457 34.8616C26.5894 34.9706 26.3869 35.0254 26.1382 35.0254C25.9635 35.0254 25.8085 34.9976 25.6731 34.9422C25.5376 34.8868 25.4225 34.808 25.3275 34.7066C25.2326 34.6052 25.1605 34.4836 25.1105 34.3431C25.0605 34.2026 25.0352 34.047 25.0352 33.877V32.0961H25.4642V33.7718C25.4642 34.0382 25.5332 34.2486 25.6705 34.4042C25.8078 34.5598 26.0053 34.6373 26.2616 34.6373C26.3844 34.6373 26.4983 34.6159 26.6046 34.5737C26.7103 34.5315 26.8014 34.4704 26.878 34.3904C26.9539 34.311 27.0147 34.2159 27.059 34.1044C27.1033 33.9929 27.126 33.8713 27.126 33.7384V32.0961L27.1248 32.0955Z" fill="black"/>
<path d="M30.4939 34.8738C30.3097 34.979 30.0825 35.0313 29.811 35.0313C29.599 35.0313 29.4028 34.9916 29.2231 34.9122C29.0428 34.8329 28.8871 34.7258 28.7548 34.5903C28.6232 34.4555 28.52 34.2974 28.4454 34.116C28.3713 33.9346 28.334 33.7424 28.334 33.539C28.334 33.3355 28.3713 33.1421 28.4454 32.9594C28.5194 32.7761 28.6226 32.6161 28.7548 32.4794C28.8864 32.3427 29.0428 32.2343 29.2231 32.155C29.4035 32.0756 29.5997 32.0359 29.811 32.0359C29.9483 32.0359 30.073 32.0491 30.1844 32.0749C30.2958 32.1008 30.3983 32.1367 30.4907 32.1833C30.5837 32.2299 30.6691 32.2841 30.747 32.3471C30.8248 32.4101 30.8976 32.4769 30.964 32.5468L30.6799 32.8466C30.5647 32.7282 30.4394 32.6268 30.3034 32.5417C30.1679 32.4567 30.0015 32.4139 29.8047 32.4139C29.6598 32.4139 29.5243 32.4422 29.3978 32.4995C29.2712 32.5569 29.1617 32.6362 29.0687 32.7377C28.9757 32.8391 28.9035 32.9569 28.851 33.0917C28.7985 33.2265 28.7732 33.3714 28.7732 33.5264C28.7732 33.6813 28.7998 33.8268 28.8542 33.9635C28.908 34.1002 28.9826 34.2193 29.0769 34.3207C29.1719 34.4221 29.2832 34.5015 29.4117 34.5588C29.5402 34.6162 29.68 34.6445 29.8325 34.6445C30.0186 34.6445 30.1825 34.6036 30.3255 34.5223C30.4685 34.441 30.5976 34.339 30.7128 34.2174L30.9862 34.4725C30.8413 34.6363 30.6767 34.7705 30.4932 34.8751L30.4939 34.8738Z" fill="black"/>
<path d="M32.2727 32.4922C32.1335 32.5312 31.9968 32.5816 31.8633 32.6446L31.7348 32.295C31.8943 32.2213 32.0563 32.1627 32.2196 32.1205C32.3828 32.0783 32.5708 32.0569 32.7828 32.0569C33.1764 32.0569 33.4795 32.1539 33.6915 32.3479C33.9035 32.5419 34.0092 32.8298 34.0092 33.211V34.9641H33.5966V34.5313C33.4966 34.6611 33.3618 34.7757 33.1922 34.8753C33.0233 34.9748 32.8106 35.0252 32.5543 35.0252C32.4208 35.0252 32.2898 35.0069 32.1613 34.9698C32.0329 34.9326 31.9177 34.8765 31.8158 34.8003C31.7133 34.7247 31.6317 34.6309 31.5703 34.52C31.5089 34.4091 31.4785 34.2775 31.4785 34.1263C31.4785 33.9751 31.5083 33.8403 31.5677 33.7237C31.6272 33.6072 31.712 33.5102 31.8215 33.4327C31.931 33.3552 32.0614 33.296 32.212 33.2551C32.3626 33.2141 32.529 33.1939 32.7106 33.1939C32.8923 33.1939 33.0581 33.2053 33.1954 33.2273C33.3327 33.2494 33.4669 33.279 33.5966 33.3162V33.216C33.5966 32.9571 33.5213 32.7618 33.3707 32.6308C33.2201 32.4997 33.0093 32.4336 32.7379 32.4336C32.567 32.4336 32.4119 32.4531 32.2727 32.4916V32.4922ZM32.1354 33.6714C31.9911 33.7785 31.919 33.9247 31.919 34.1099C31.919 34.2025 31.9386 34.2838 31.9772 34.3543C32.0158 34.4249 32.069 34.4847 32.1354 34.5345C32.2018 34.5842 32.2791 34.6227 32.3658 34.6485C32.4531 34.6743 32.5442 34.6876 32.641 34.6876C32.7746 34.6876 32.8992 34.668 33.0157 34.6296C33.1321 34.5905 33.234 34.537 33.3213 34.469C33.4087 34.4003 33.477 34.319 33.527 34.2245C33.577 34.1301 33.6023 34.0255 33.6023 33.9108V33.6337C33.4947 33.604 33.372 33.5763 33.2327 33.5505C33.0941 33.5247 32.9353 33.5114 32.7575 33.5114C32.4873 33.5114 32.2797 33.565 32.1354 33.6721V33.6714Z" fill="black"/>
<path d="M35.4741 34.1486C35.4741 34.3262 35.5184 34.4503 35.6077 34.5203C35.6969 34.5902 35.814 34.6255 35.9589 34.6255C36.0329 34.6255 36.1032 34.6179 36.1677 34.6034C36.2329 34.5889 36.3025 34.5631 36.3765 34.5259V34.8919C36.3019 34.9329 36.2234 34.9631 36.1399 34.9833C36.0563 35.0034 35.9627 35.0135 35.8583 35.0135C35.7431 35.0135 35.6355 34.9984 35.5349 34.9688C35.4343 34.9392 35.3482 34.8919 35.2754 34.827C35.2026 34.7622 35.1463 34.6784 35.1052 34.5744C35.064 34.4711 35.0438 34.347 35.0438 34.2028V32.4717H34.6426V32.0943H35.0438V31.2288H35.4729V32.0943H36.3867V32.4717H35.4729V34.1473L35.4741 34.1486Z" fill="black"/>
<path d="M37.1582 31.4687V30.9968H37.6487V31.4687H37.1582ZM37.186 34.9643V32.0955H37.6151V34.9643H37.186Z" fill="black"/>
<path d="M41.3251 34.1068C41.2491 34.2901 41.1441 34.4501 41.0099 34.5868C40.8764 34.7235 40.7163 34.8319 40.5309 34.9113C40.3448 34.9906 40.1442 35.0303 39.929 35.0303C39.7139 35.0303 39.5145 34.9906 39.3329 34.9113C39.1513 34.8319 38.9931 34.7248 38.8589 34.5894C38.7254 34.4546 38.621 34.2964 38.5469 34.115C38.4729 33.9336 38.4355 33.7414 38.4355 33.538C38.4355 33.3345 38.4729 33.1411 38.5469 32.9584C38.621 32.7751 38.7254 32.6151 38.8589 32.4784C38.9924 32.3417 39.1513 32.2333 39.3354 32.154C39.5196 32.0746 39.7208 32.0349 39.9404 32.0349C40.16 32.0349 40.3556 32.0746 40.5397 32.154C40.7239 32.2333 40.8827 32.3411 41.0162 32.4759C41.1498 32.6107 41.2542 32.7688 41.3282 32.9502C41.4023 33.1317 41.4396 33.3238 41.4396 33.5273C41.4396 33.7307 41.4016 33.9241 41.3251 34.1068ZM40.9182 33.0983C40.8644 32.9616 40.7891 32.8425 40.6922 32.7411C40.5954 32.6397 40.4821 32.5597 40.3524 32.5004C40.222 32.4412 40.0809 32.4116 39.929 32.4116C39.7772 32.4116 39.6297 32.44 39.5 32.4973C39.3696 32.5546 39.2595 32.634 39.1684 32.7354C39.0772 32.8368 39.0057 32.9546 38.9538 33.0895C38.9019 33.2243 38.876 33.3691 38.876 33.5241C38.876 33.6791 38.9026 33.8246 38.957 33.9613C39.0108 34.098 39.0855 34.2158 39.1798 34.3153C39.2747 34.4149 39.3867 34.4942 39.5171 34.5535C39.6468 34.6127 39.7885 34.6423 39.9404 34.6423C40.0923 34.6423 40.2398 34.6139 40.3695 34.5566C40.4992 34.4993 40.6112 34.4212 40.7043 34.321C40.7973 34.2215 40.8694 34.1043 40.9213 33.9695C40.9732 33.8347 40.9992 33.6898 40.9992 33.5348C40.9992 33.3799 40.9719 33.2343 40.9182 33.0976V33.0983Z" fill="black"/>
<path d="M42.642 34.9643H42.2129V32.0955H42.642V32.5951C42.7388 32.4395 42.8647 32.3072 43.021 32.1982C43.1773 32.0892 43.3798 32.0344 43.6285 32.0344C43.8032 32.0344 43.9583 32.0621 44.0937 32.1176C44.2291 32.173 44.3443 32.2518 44.4392 32.3532C44.5341 32.4552 44.6063 32.5762 44.6563 32.7167C44.7063 32.8571 44.7316 33.0127 44.7316 33.1828V34.9637H44.3025V33.288C44.3025 33.0216 44.2335 32.8105 44.0962 32.6556C43.9589 32.5 43.7614 32.4225 43.5051 32.4225C43.3824 32.4225 43.2685 32.4439 43.1621 32.4861C43.0565 32.5289 42.9641 32.5894 42.8862 32.6694C42.8084 32.7488 42.7476 32.8439 42.7052 32.9554C42.6622 33.0663 42.6413 33.1885 42.6413 33.3214V34.9637L42.642 34.9643Z" fill="black"/>
<path d="M10.8243 8.04538C10.7129 8.05924 10.6009 8.07499 10.4883 8.092V21.0362C14.3074 21.1307 17.2963 22.8587 19.1499 24.3145C20.3561 25.2619 21.237 26.2024 21.7692 26.833V17.751C21.7692 11.9095 16.6458 7.30897 10.8243 8.04538Z" fill="url(#paint0_linear_1_5090)"/>
<path d="M35.2457 8.04538C35.357 8.05924 35.4691 8.07499 35.5817 8.092V21.0362C31.7625 21.1307 28.7737 22.8587 26.9201 24.3145C25.7139 25.2619 24.833 26.2024 24.3008 26.833V17.751C24.3008 11.9095 29.4242 7.30897 35.2457 8.04538Z" fill="url(#paint1_linear_1_5090)"/>
<path d="M23.0348 11.4673C23.0348 11.4673 20.4276 4.6336 11.5508 6.41384C14.4289 6.29037 17.271 7.28317 19.4637 9.20641C21.2578 10.7794 22.4944 12.8576 23.0348 15.133C23.5753 12.8582 24.8118 10.78 26.6059 9.20641C28.7993 7.28317 31.6401 6.29037 34.5189 6.41384C25.6415 4.6336 23.0348 11.4673 23.0348 11.4673Z" fill="url(#paint2_linear_1_5090)"/>
<path d="M23.0362 9.55706C23.0362 9.55706 24.7455 5.07937 30.1056 4.31776C24.6461 3.44906 23.0362 6.97804 23.0362 6.97804C23.0362 6.97804 21.4269 3.44906 15.9668 4.31776C21.3269 5.07937 23.0362 9.55706 23.0362 9.55706Z" fill="url(#paint3_linear_1_5090)"/>
<path d="M23.0346 4.17991C24.1076 4.17991 24.9774 3.31405 24.9774 2.24596C24.9774 1.17787 24.1076 0.312012 23.0346 0.312012C21.9616 0.312012 21.0918 1.17787 21.0918 2.24596C21.0918 3.31405 21.9616 4.17991 23.0346 4.17991Z" fill="url(#paint4_linear_1_5090)"/>
<path d="M36.9632 23.7574C32.3246 24.0938 28.8535 25.6208 26.7695 26.8328C28.6933 24.9921 32.1119 22.5372 36.6664 22.5372H36.9942V10.5127H37.0088C37.8505 10.5606 38.5086 11.2535 38.5086 12.0926V22.1145C38.5086 22.9813 37.8321 23.695 36.9632 23.758V23.7574Z" fill="url(#paint5_linear_1_5090)"/>
<path d="M9.10593 23.7574C13.7446 24.0938 17.2157 25.6208 19.2996 26.8328C17.3758 24.9921 13.9572 22.5372 9.40273 22.5372H9.07492V10.5127H9.06037C8.2187 10.5606 7.56055 11.2535 7.56055 12.0926V22.1145C7.56055 22.9813 8.23705 23.695 9.10593 23.758V23.7574Z" fill="url(#paint6_linear_1_5090)"/>
<g style="mix-blend-mode:multiply">
<path d="M26.9201 24.3146C28.7737 22.8587 31.7625 21.1308 35.5817 21.0363V8.09208C35.4691 8.07507 35.357 8.05995 35.2457 8.04546C34.8742 7.99822 34.5065 7.97365 34.142 7.96924C35.1963 11.051 34.902 14.5963 33.2459 17.4147C31.3999 20.5556 27.9345 22.6716 24.3008 22.9696V26.8331C24.833 26.2025 25.7139 25.262 26.9201 24.3146Z" fill="#F2F2F2"/>
</g>
<g style="mix-blend-mode:multiply">
<path d="M21.7692 26.8328V17.7508C21.7692 15.6285 21.0908 13.6719 19.9504 12.0737C20.2941 13.2423 20.5466 14.4373 20.6984 15.6449C20.8048 16.4878 20.8579 17.3741 20.5301 18.1578C20.0738 19.2489 18.9651 19.9311 17.8456 20.3254C15.463 21.1652 12.7399 20.9699 10.4883 19.8335V21.0354C14.3074 21.1299 17.2963 22.8578 19.1499 24.3137C20.3561 25.2611 21.237 26.2016 21.7692 26.8322V26.8328Z" fill="#F2F2F2"/>
</g>
<path d="M25.373 18.6463C25.9274 16.839 26.6191 15.0688 27.5892 13.4467C28.4518 12.0047 29.5466 10.6812 30.868 9.64746C29.9592 10.0084 29.1068 10.5231 28.3543 11.1833C26.4596 12.8445 25.373 15.2383 25.373 17.7505V18.6457V18.6463Z" fill="#636363"/>
<path d="M11.9916 9.05078C12.3301 10.562 12.4099 12.0865 12.4206 13.6217C12.4111 15.1569 12.332 16.6814 11.9916 18.1926C11.6511 16.6814 11.5714 15.1575 11.5625 13.6217C11.5733 12.0865 11.653 10.562 11.9916 9.05078Z" fill="#636363"/>
<defs>
<linearGradient id="paint0_linear_1_5090" x1="10.4883" y1="17.4001" x2="21.7692" y2="17.4001" gradientUnits="userSpaceOnUse">
<stop stop-color="#B3B3B3"/>
<stop offset="1" stop-color="white"/>
</linearGradient>
<linearGradient id="paint1_linear_1_5090" x1="24.3008" y1="0.312116" x2="35.5817" y2="0.312116" gradientUnits="userSpaceOnUse">
<stop stop-color="#B3B3B3"/>
<stop offset="1" stop-color="white"/>
</linearGradient>
<linearGradient id="paint2_linear_1_5090" x1="23.0348" y1="15.133" x2="23.0348" y2="6.11839" gradientUnits="userSpaceOnUse">
<stop stop-color="#FFBA1B"/>
<stop offset="1" stop-color="#E93800"/>
</linearGradient>
<linearGradient id="paint3_linear_1_5090" x1="23.0362" y1="9.55706" x2="23.0362" y2="4.18043" gradientUnits="userSpaceOnUse">
<stop stop-color="#FFBA1B"/>
<stop offset="1" stop-color="#E93800"/>
</linearGradient>
<linearGradient id="paint4_linear_1_5090" x1="23.0346" y1="4.18054" x2="23.0346" y2="0.312012" gradientUnits="userSpaceOnUse">
<stop stop-color="#FFBA1B"/>
<stop offset="1" stop-color="#E93800"/>
</linearGradient>
<linearGradient id="paint5_linear_1_5090" x1="32.6391" y1="26.8328" x2="32.6391" y2="10.5127" gradientUnits="userSpaceOnUse">
<stop stop-color="#FFBA1B"/>
<stop offset="1" stop-color="#E93800"/>
</linearGradient>
<linearGradient id="paint6_linear_1_5090" x1="13.4301" y1="26.8328" x2="13.4301" y2="10.5127" gradientUnits="userSpaceOnUse">
<stop stop-color="#FFBA1B"/>
<stop offset="1" stop-color="#E93800"/>
</linearGradient>
</defs>
</svg>
