<svg width="46" height="34" viewBox="0 0 46 34" fill="none" xmlns="http://www.w3.org/2000/svg">
<path d="M2.31583 26.9629H0.0449219V32.1315H1.39399V30.7013H2.31583C3.63545 30.7013 4.39504 29.9934 4.39504 28.7771C4.39504 27.6263 3.63545 26.9629 2.31583 26.9629ZM2.2504 29.6244H1.39399V28.0391H2.24975C2.79539 28.0391 3.1127 28.312 3.1127 28.821C3.12117 28.9339 3.10414 29.0472 3.06287 29.1527C3.0216 29.2581 2.95715 29.3529 2.87428 29.43C2.79141 29.5072 2.69226 29.5647 2.58415 29.5983C2.47605 29.632 2.36176 29.6409 2.24975 29.6244H2.2504Z" fill="black"/>
<path d="M7.14562 26.9629V29.0715H9.23202V26.9629H10.5811V32.1315H9.23202V30.1478H7.14562V32.1315H5.7959V26.9629H7.14562Z" fill="black"/>
<path d="M13.6704 26.9629H12.3213V32.1315H13.6704V26.9629Z" fill="black"/>
<path d="M16.7631 26.9629V30.9813H18.9529V32.1315H15.4141V26.9629H16.7631Z" fill="black"/>
<path d="M23.904 31.9993C23.5593 32.1457 23.1878 32.2184 22.8134 32.2126C22.4674 32.2184 22.1239 32.1536 21.8039 32.0222C21.5173 31.903 21.2588 31.7253 21.0448 31.5006C20.8308 31.2758 20.6659 31.009 20.5608 30.717C20.4484 30.41 20.3922 30.0854 20.3946 29.7585C20.3936 29.4377 20.4524 29.1195 20.568 28.8203C20.6787 28.5291 20.8436 28.2616 21.0541 28.0319C21.2735 27.7938 21.5407 27.6047 21.8382 27.4771C22.1358 27.3494 22.4569 27.2861 22.7807 27.2913C22.9638 27.29 23.1467 27.3035 23.3276 27.3319C23.4853 27.357 23.64 27.398 23.7895 27.4542C23.9296 27.5073 24.064 27.5743 24.1906 27.6544C24.3177 27.7355 24.4393 27.8251 24.5543 27.9227L24.2076 28.3302C24.1182 28.2495 24.0228 28.1756 23.9223 28.1091C23.8205 28.0422 23.7125 27.9853 23.5998 27.939C23.4768 27.8894 23.3493 27.8519 23.219 27.8271C23.068 27.7989 22.9146 27.7853 22.761 27.7866C22.5099 27.7839 22.2614 27.8373 22.0335 27.9429C21.8165 28.0435 21.6222 28.1871 21.4623 28.3649C21.3004 28.5477 21.1737 28.7588 21.0888 28.9878C20.9973 29.2303 20.9512 29.4875 20.9527 29.7467C20.9495 30.0166 20.9938 30.2851 21.0835 30.5397C21.166 30.7728 21.2944 30.987 21.461 31.1697C21.6258 31.3482 21.8265 31.4898 22.0499 31.5851C22.2974 31.6883 22.5636 31.7393 22.8317 31.735C23.0942 31.7366 23.3547 31.6892 23.5998 31.595C23.8175 31.5142 24.0214 31.4004 24.2043 31.2574V30.0699H22.7565V29.5943H24.7192V31.489C24.476 31.7009 24.2009 31.8731 23.904 31.9993Z" fill="black"/>
<path d="M26.6148 29.1037C26.4432 29.1519 26.276 29.2145 26.115 29.2908L25.9586 28.8629C26.1481 28.7741 26.3451 28.7025 26.5474 28.649C26.772 28.5941 27.0026 28.5679 27.2337 28.5711C27.6349 28.5445 28.0311 28.672 28.3414 28.9277C28.4772 29.0662 28.582 29.2321 28.6488 29.4143C28.7156 29.5965 28.7428 29.7908 28.7287 29.9843V32.1322H28.2256V31.6022C28.0896 31.7727 27.9224 31.9157 27.7329 32.0236C27.4949 32.1536 27.2261 32.2169 26.955 32.2068C26.7931 32.2077 26.6318 32.1857 26.4761 32.1413C26.3243 32.0983 26.1815 32.028 26.0548 31.934C25.9314 31.8425 25.8294 31.7253 25.7558 31.5905C25.678 31.4417 25.6395 31.2755 25.6439 31.1076C25.6405 30.9371 25.6777 30.7683 25.7525 30.615C25.8248 30.4725 25.9311 30.3501 26.0619 30.2584C26.2063 30.1581 26.3674 30.0844 26.5376 30.0405C26.7362 29.9889 26.9408 29.9638 27.1461 29.966C27.3431 29.9641 27.54 29.9779 27.7349 30.0072C27.9 30.0337 28.0634 30.07 28.2243 30.1158V29.9934C28.2343 29.8606 28.2148 29.7272 28.1672 29.6027C28.1196 29.4783 28.045 29.366 27.9488 29.2738C27.7301 29.1012 27.4555 29.0152 27.1775 29.0324C26.9875 29.0306 26.7983 29.0546 26.6148 29.1037ZM26.4473 30.5482C26.3629 30.6094 26.2949 30.6904 26.2492 30.7841C26.2036 30.8778 26.1817 30.9812 26.1856 31.0854C26.1835 31.1895 26.208 31.2924 26.2569 31.3844C26.3056 31.4714 26.3726 31.5469 26.4532 31.6055C26.5379 31.6684 26.6332 31.7157 26.7345 31.7449C26.8435 31.7771 26.9566 31.7932 27.0702 31.7926C27.2257 31.7939 27.3804 31.7698 27.5281 31.7213C27.6629 31.6781 27.7891 31.6117 27.9011 31.525C28.0047 31.4442 28.0901 31.3423 28.1516 31.2261C28.2134 31.1076 28.2448 30.9756 28.2432 30.842V30.5038C28.1124 30.4676 27.9621 30.4335 27.7925 30.4017C27.6013 30.3681 27.4075 30.3521 27.2134 30.3539C26.944 30.3344 26.6755 30.4026 26.448 30.5482H26.4473Z" fill="black"/>
<path d="M32.8477 28.9714C32.927 28.8853 33.0172 28.8098 33.116 28.747C33.2204 28.6814 33.3336 28.6309 33.4522 28.5971C33.5883 28.5594 33.7291 28.5411 33.8703 28.5428C34.0478 28.5332 34.2253 28.5619 34.3907 28.627C34.5561 28.6922 34.7056 28.7922 34.8288 28.9203C35.0729 29.2086 35.197 29.5796 35.1755 29.9567V32.1314H34.6522V30.0797C34.6706 29.7972 34.5847 29.5178 34.4107 29.2946C34.3266 29.2019 34.2229 29.1291 34.1071 29.0815C33.9913 29.0338 33.8664 29.0125 33.7414 29.0191C33.6134 29.0185 33.4866 29.0427 33.3679 29.0905C33.2507 29.1374 33.1451 29.2093 33.0584 29.3011C32.9661 29.4003 32.8944 29.5168 32.8477 29.6439C32.7934 29.7918 32.7668 29.9484 32.7692 30.1058V32.134H32.253V30.0679C32.2701 29.7898 32.1841 29.5152 32.0116 29.2965C31.9285 29.2043 31.8259 29.1317 31.7113 29.084C31.5967 29.0364 31.4728 29.0149 31.3488 29.0211C31.2153 29.0197 31.0831 29.0476 30.9615 29.1029C30.8434 29.1574 30.738 29.2361 30.6521 29.3338C30.5618 29.4366 30.4915 29.5553 30.4447 29.6839C30.3933 29.8265 30.3681 29.9772 30.3701 30.1287V32.1334H29.8467V28.6194H30.3701V29.2082C30.4308 29.1209 30.4963 29.037 30.5663 28.957C30.6369 28.8752 30.7181 28.8033 30.8078 28.743C30.9022 28.6802 31.005 28.631 31.1133 28.5971C31.2406 28.559 31.373 28.5407 31.5058 28.5428C31.7568 28.5328 32.0044 28.6031 32.2124 28.7437C32.3933 28.8716 32.5383 29.0437 32.6338 29.2435C32.6978 29.1473 32.7694 29.0563 32.8477 28.9714Z" fill="black"/>
<path d="M36.3242 27.8499V27.2722H36.9222V27.8499H36.3242ZM36.3582 32.1313V28.6174H36.8816V32.1313H36.3582Z" fill="black"/>
<path d="M38.621 32.1322H38.0977V28.6182H38.621V29.2299C38.7404 29.038 38.8978 28.8726 39.0836 28.7438C39.3036 28.6016 39.5625 28.5314 39.8242 28.543C40.0182 28.5396 40.2109 28.5742 40.3915 28.645C40.5513 28.7092 40.6951 28.8077 40.8128 28.9336C40.9306 29.0622 41.0208 29.2136 41.0778 29.3784C41.1408 29.5622 41.1718 29.7554 41.1694 29.9496V32.1309H40.646V30.0798C40.6613 29.7994 40.5718 29.5232 40.3947 29.3052C40.3032 29.2076 40.1912 29.1315 40.0668 29.0821C39.9424 29.0328 39.8086 29.0116 39.6751 29.0199C39.5319 29.0188 39.39 29.0455 39.257 29.0984C39.1305 29.149 39.0159 29.2254 38.9207 29.3228C38.8237 29.423 38.7484 29.5422 38.6996 29.6729C38.646 29.8164 38.6193 29.9685 38.621 30.1217V32.1322Z" fill="black"/>
<path d="M45.5024 32.2681C45.425 32.4713 45.3016 32.6538 45.1419 32.8013C44.979 32.9477 44.7867 33.0577 44.5779 33.1239C44.3395 33.1991 44.0906 33.2357 43.8406 33.2325C43.5552 33.2337 43.2712 33.1925 42.9979 33.1101C42.7289 33.0277 42.4744 32.9039 42.2436 32.7431L42.4817 32.3355C42.6776 32.4763 42.8927 32.5884 43.1203 32.6685C43.35 32.7469 43.5913 32.786 43.834 32.7843C44.1734 32.8019 44.5065 32.6888 44.765 32.4683C44.8863 32.3465 44.9801 32.2 45.0399 32.0388C45.0997 31.8776 45.1242 31.7055 45.1118 31.534V31.1192C44.9556 31.3251 44.7648 31.5022 44.5478 31.6426C44.3035 31.794 44.0199 31.8698 43.7327 31.8605C43.5225 31.861 43.3141 31.8231 43.1177 31.7486C42.9195 31.6742 42.7381 31.5611 42.5841 31.4159C42.4301 31.2706 42.3065 31.0962 42.2207 30.9027C42.1248 30.6842 42.0773 30.4477 42.0813 30.2092C42.0775 29.9696 42.125 29.7321 42.2207 29.5124C42.3074 29.3147 42.4334 29.1366 42.5909 28.989C42.7452 28.8472 42.925 28.7362 43.1209 28.6619C43.4605 28.5309 43.8329 28.5108 44.1847 28.6043C44.3151 28.6397 44.4406 28.6911 44.5583 28.7574C44.6676 28.8199 44.7691 28.8952 44.8606 28.9818C44.9492 29.0657 45.031 29.1565 45.1052 29.2533V28.6213H45.6286V31.5236C45.6334 31.7775 45.5905 32.03 45.5024 32.2681ZM45.0163 29.7093C44.9463 29.5653 44.8479 29.4369 44.7271 29.3318C44.606 29.227 44.4668 29.1452 44.3162 29.0904C44.1616 29.0337 43.9981 29.0049 43.8334 29.0054C43.6723 29.0043 43.5123 29.0319 43.361 29.0871C43.2171 29.1395 43.0854 29.2205 42.9737 29.3253C42.8611 29.4315 42.772 29.5601 42.712 29.7028C42.6467 29.8587 42.6142 30.0264 42.6165 30.1954C42.6138 30.3582 42.6448 30.5198 42.7074 30.67C42.77 30.8203 42.8629 30.9561 42.9802 31.0689C43.0916 31.1756 43.2233 31.2588 43.3676 31.3135C43.5162 31.3705 43.6742 31.3993 43.8334 31.3986C43.9981 31.3991 44.1616 31.3703 44.3162 31.3135C44.4668 31.2588 44.606 31.177 44.7271 31.0721C44.8479 30.9671 44.9463 30.8387 45.0163 30.6946C45.0879 30.5403 45.1249 30.3721 45.1249 30.202C45.1249 30.0318 45.0879 29.8637 45.0163 29.7093Z" fill="black"/>
<path d="M39.9837 8.75772C39.8365 6.25063 39.181 2.85572 36.8911 0.919796C36.4365 0.557126 35.9118 0.292427 35.3499 0.14234C34.7881 -0.00774728 34.2013 -0.0399762 33.6264 0.0476792C27.9645 0.610335 18.9057 9.01092 14.377 14.3051C14.2185 14.9831 14.2908 15.6945 14.5824 16.3267C19.1956 10.5497 28.6142 1.99866 33.7697 1.48899C34.1514 1.42218 34.5429 1.43543 34.9193 1.52789C35.2957 1.62036 35.6488 1.79002 35.9562 2.02613C37.4367 3.27772 38.3533 5.6991 38.5378 8.84277C38.8185 13.624 37.3327 19.3474 35.2267 21.6007C35.0249 21.8773 34.7684 22.1095 34.473 22.2827C34.1777 22.4559 33.8498 22.5665 33.5099 22.6076C32.5338 22.5873 31.4569 21.337 30.2099 19.8885C28.4899 17.8911 26.2844 15.3329 22.9254 14.4628C22.5008 14.8652 22.0893 15.2773 21.6896 15.6941C25.1152 16.1907 27.2991 18.7272 29.112 20.8332C30.5854 22.5441 31.8599 24.022 33.4798 24.0554H33.5348C34.0699 24.0171 34.5911 23.8668 35.0644 23.6142C35.5378 23.3616 35.9528 23.0124 36.2826 22.5892C38.6641 20.0429 40.2893 13.9675 39.9837 8.75772Z" fill="url(#paint0_linear_1_5190)"/>
<path d="M32.7845 8.45625C32.86 8.15119 33.0191 7.87324 33.2439 7.65364C33.4687 7.43404 33.7503 7.2815 34.057 7.21317C34.6079 7.14774 34.9317 7.59264 34.7767 8.2109C34.7012 8.51596 34.5421 8.79391 34.3173 9.01351C34.0925 9.23311 33.8109 9.38565 33.5042 9.45398C32.9566 9.52071 32.6327 9.07386 32.7845 8.45625Z" fill="url(#paint1_linear_1_5190)"/>
<path d="M31.6691 12.9836C31.7446 12.6785 31.9037 12.4006 32.1285 12.181C32.3533 11.9614 32.6349 11.8088 32.9417 11.7405C33.4926 11.6751 33.8158 12.12 33.6614 12.7389C33.5859 13.044 33.4269 13.322 33.202 13.5416C32.9772 13.7612 32.6956 13.9137 32.3888 13.982C31.8438 14.0487 31.52 13.6019 31.6691 12.9836Z" fill="url(#paint2_linear_1_5190)"/>
<path d="M35.5181 9.23221C36.069 9.16679 36.3922 9.61168 36.2378 10.2299C36.1623 10.535 36.0032 10.813 35.7784 11.0326C35.5536 11.2522 35.272 11.4047 34.9653 11.473C34.4144 11.5384 34.0912 11.0936 34.2456 10.4746C34.3211 10.1697 34.4802 9.89181 34.705 9.67233C34.9298 9.45284 35.2114 9.30042 35.5181 9.23221Z" fill="url(#paint3_linear_1_5190)"/>
<path d="M31.4839 9.72342C32.0348 9.658 32.358 10.1029 32.2036 10.7218C32.1281 11.0269 31.969 11.3048 31.7442 11.5244C31.5194 11.744 31.2378 11.8966 30.9311 11.9649C30.3802 12.0303 30.057 11.5854 30.2114 10.9671C30.2868 10.662 30.4459 10.3839 30.6707 10.1642C30.8955 9.94444 31.1771 9.7918 31.4839 9.72342Z" fill="url(#paint4_linear_1_5190)"/>
<path d="M15.03 9.86149H14.0414L14.4209 8.87292C14.6302 8.32858 14.3555 7.88696 13.8131 7.88696C13.5165 7.90831 13.2318 8.01187 12.9909 8.18603C12.7499 8.36018 12.5623 8.59804 12.449 8.87292L12.0708 9.86149H11.0822C10.7857 9.88196 10.5008 9.98463 10.2594 10.158C10.018 10.3313 9.82967 10.5685 9.71551 10.8429C9.5068 11.3872 9.78093 11.8288 10.3233 11.8288H11.3119L10.9324 12.8174C10.7237 13.3617 10.9978 13.8034 11.5402 13.8034C11.8368 13.782 12.1215 13.6784 12.3624 13.5043C12.6034 13.3301 12.791 13.0923 12.9043 12.8174L13.2838 11.8288H14.2724C14.569 11.8076 14.8539 11.7041 15.095 11.5299C15.336 11.3558 15.5238 11.1178 15.6371 10.8429C15.8465 10.3011 15.575 9.86149 15.03 9.86149Z" fill="url(#paint5_linear_1_5190)"/>
<path d="M26.1668 8.47627C21.9384 10.7354 18.7542 14.5078 16.1686 17.5704C13.8787 20.2861 11.8989 22.6303 10.2875 22.578C9.57701 22.5544 8.86649 22.05 8.11672 21.0366C6.93318 19.1392 6.78597 15.8745 7.72417 12.3023C8.66891 8.71049 10.5231 5.47391 12.684 3.6479C15.2585 1.47121 17.1873 2.72802 19.4228 4.18373C20.0498 4.60844 20.6988 4.99958 21.3673 5.35549C21.7768 5.00656 22.1912 4.66526 22.6103 4.33159C21.7706 3.95534 20.9688 3.49965 20.2158 2.97075C19.0783 2.12126 17.7909 1.49358 16.4211 1.12053C14.7966 0.793403 13.2683 1.25923 11.7504 2.54287C9.37092 4.55469 7.34274 8.06736 6.32538 11.9386C5.26746 15.9642 5.47878 19.5717 6.90636 21.8354L6.9358 21.8786C7.97213 23.2872 9.05295 23.9912 10.2411 24.0304H10.3464C12.618 24.0304 14.6789 21.5875 17.2775 18.5072C19.7081 15.6285 22.6856 12.0989 26.5025 9.94506C26.5725 9.43096 26.4532 8.90895 26.1668 8.47627Z" fill="url(#paint6_linear_1_5190)"/>
<defs>
<linearGradient id="paint0_linear_1_5190" x1="41.4355" y1="7.74551" x2="10.464" y2="26.2349" gradientUnits="userSpaceOnUse">
<stop stop-color="#F05926"/>
<stop offset="1" stop-color="#FAB03B"/>
</linearGradient>
<linearGradient id="paint1_linear_1_5190" x1="40.0299" y1="5.07244" x2="7.04453" y2="19.5689" gradientUnits="userSpaceOnUse">
<stop stop-color="#F05926"/>
<stop offset="1" stop-color="#FAB03B"/>
</linearGradient>
<linearGradient id="paint2_linear_1_5190" x1="41.6376" y1="8.17662" x2="8.66315" y2="22.655" gradientUnits="userSpaceOnUse">
<stop stop-color="#F05926"/>
<stop offset="1" stop-color="#FAB03B"/>
</linearGradient>
<linearGradient id="paint3_linear_1_5190" x1="41.1724" y1="7.26071" x2="8.1762" y2="21.767" gradientUnits="userSpaceOnUse">
<stop stop-color="#F05926"/>
<stop offset="1" stop-color="#FAB03B"/>
</linearGradient>
<linearGradient id="paint4_linear_1_5190" x1="40.5112" y1="5.9908" x2="7.51172" y2="20.4963" gradientUnits="userSpaceOnUse">
<stop stop-color="#F05926"/>
<stop offset="1" stop-color="#FAB03B"/>
</linearGradient>
<linearGradient id="paint5_linear_1_5190" x1="36.556" y1="-1.59109" x2="4.86744" y2="15.7344" gradientUnits="userSpaceOnUse">
<stop stop-color="#F05926"/>
<stop offset="1" stop-color="#FAB03B"/>
</linearGradient>
<linearGradient id="paint6_linear_1_5190" x1="37.3076" y1="-0.292088" x2="4.14358" y2="13.9202" gradientUnits="userSpaceOnUse">
<stop stop-color="#F05926"/>
<stop offset="1" stop-color="#FAB03B"/>
</linearGradient>
</defs>
</svg>
