<svg width="45" height="40" viewBox="0 0 45 40" fill="none" xmlns="http://www.w3.org/2000/svg">
<g clip-path="url(#clip0_1_5277)">
<path fill-rule="evenodd" clip-rule="evenodd" d="M11.4472 27.8327C11.6407 26.5268 12.1982 21.1622 12.7379 15.7148H24.9306C25.4806 15.7148 25.9268 16.177 25.9268 16.748C25.9268 17.319 25.4806 17.7812 24.9306 17.7812H16.4848V25.7341H20.1308V21.0861H24.872C27.182 21.0861 29.0548 19.1438 29.0548 16.748C29.0548 14.3522 27.182 12.41 24.872 12.41H13.0619C13.2662 10.3104 13.4558 8.32372 13.6075 6.69554H30.8014C32.1049 16.7056 32.6899 21.1974 33.5537 27.8327C36.0877 28.3536 38.5351 29.0584 40.8338 29.9491C29.0887 28.0502 15.9111 28.0502 4.16602 29.9491C6.46471 29.0584 8.91261 28.3536 11.4467 27.8327H11.4472ZM17.9227 7.58879C17.5903 7.58879 17.321 7.86816 17.321 8.21238C17.321 8.5566 17.5903 8.83597 17.9227 8.83597C18.2551 8.83597 18.524 8.5566 18.524 8.21238C18.524 7.86816 18.2551 7.58879 17.9227 7.58879ZM27.4031 7.58879C27.0707 7.58879 26.8019 7.86816 26.8019 8.21238C26.8019 8.5566 27.0707 8.83597 27.4031 8.83597C27.7355 8.83597 28.0049 8.5566 28.0049 8.21238C28.0049 7.86816 27.7355 7.58879 27.4031 7.58879ZM17.4475 6.03008C17.5179 3.01275 19.2641 -0.000488281 22.5989 -0.000488281C25.9337 -0.000488281 27.6799 3.01275 27.7498 6.03008H26.794C26.7314 3.58782 25.3595 0.990306 22.5989 0.990306C19.8383 0.990306 18.4659 3.58782 18.4033 6.03008H17.448H17.4475Z" fill="url(#paint0_linear_1_5277)"/>
<path d="M0.214844 34.1814H2.57854C3.97312 34.1814 4.87133 34.925 4.87133 36.1916V36.2079C4.87133 37.5562 3.87069 38.2671 2.49975 38.2671H1.74337V39.9014H0.214844V34.1814ZM2.46823 37.0251C3.01188 37.0251 3.3428 36.7309 3.3428 36.2815V36.2651C3.3428 35.7748 3.01188 35.5134 2.46036 35.5134H1.74337V37.0251H2.46823Z" fill="black"/>
<path d="M5.51758 34.1814H7.0461V36.3223H9.00797V34.1814H10.5365V39.9014H9.00797V37.7278H7.0461V39.9014H5.51758V34.1814Z" fill="black"/>
<path d="M11.5449 34.1814H13.0813V39.9014H11.5449V34.1814Z" fill="black"/>
<path d="M14.0898 34.1814H15.6184V38.5123H18.2893V39.9014H14.0898V34.1814Z" fill="black"/>
<path d="M21.8817 38.3325H21.8502L19.8411 35.2764V39.9014H19.2344V34.1814H19.8647L21.8738 37.3029L23.883 34.1814H24.5133V39.9014H23.8909V35.2682L21.8817 38.3325Z" fill="black"/>
<path d="M26.7868 36.2611C26.5898 36.3183 26.3968 36.3934 26.2077 36.4858L26.0265 35.971C26.252 35.8622 26.481 35.7764 26.712 35.7136C26.9429 35.6513 27.2083 35.6196 27.5077 35.6196C28.0647 35.6196 28.4926 35.7626 28.792 36.0486C29.0914 36.3346 29.2411 36.7585 29.2411 37.3193V39.9015H28.6581V39.2641C28.5163 39.4551 28.3257 39.6237 28.0869 39.7707C27.848 39.9178 27.5471 39.9914 27.1847 39.9914C26.9956 39.9914 26.8105 39.9638 26.6292 39.9097C26.448 39.855 26.285 39.7723 26.1407 39.6604C25.996 39.5486 25.8807 39.4112 25.7941 39.2478C25.7074 39.0843 25.6641 38.8908 25.6641 38.6676C25.6641 38.4444 25.7059 38.2468 25.7901 38.0752C25.8743 37.9036 25.9935 37.7606 26.1486 37.6462C26.3037 37.5318 26.4874 37.4444 26.7002 37.3847C26.9129 37.3249 27.1478 37.2948 27.4053 37.2948C27.6629 37.2948 27.8963 37.3111 28.0908 37.3438C28.2853 37.3765 28.4744 37.4204 28.6581 37.4746V37.3275C28.6581 36.9465 28.5517 36.6589 28.339 36.4654C28.1262 36.2718 27.8278 36.1753 27.4447 36.1753C27.2029 36.1753 26.9838 36.2039 26.7868 36.2611ZM26.5928 37.9975C26.3884 38.1559 26.2865 38.3709 26.2865 38.6431C26.2865 38.7794 26.3141 38.899 26.3687 39.0026C26.4239 39.1063 26.4983 39.1947 26.5923 39.2682C26.6864 39.3417 26.7952 39.3979 26.9183 39.4357C27.0414 39.474 27.1709 39.4929 27.3073 39.4929C27.4954 39.4929 27.6722 39.4643 27.8372 39.4071C28.0022 39.3499 28.1459 39.2708 28.2691 39.1701C28.3922 39.0695 28.4887 38.9495 28.5596 38.8106C28.6305 38.6717 28.6655 38.518 28.6655 38.3489V37.9403C28.5138 37.8969 28.3395 37.8561 28.1435 37.8178C27.947 37.7795 27.7234 37.7606 27.4723 37.7606C27.0902 37.7606 26.7967 37.8397 26.5928 37.9975Z" fill="black"/>
<path d="M31.1399 39.9014H30.5332V35.6768H31.1399V36.7799C31.2133 36.6057 31.3053 36.4449 31.4156 36.2978C31.526 36.1507 31.652 36.024 31.7938 35.9178C31.9357 35.8116 32.0903 35.7314 32.2587 35.6768C32.4266 35.6221 32.6078 35.5981 32.8024 35.6032V36.2814H32.7551C32.5345 36.2814 32.3257 36.3223 32.1287 36.404C31.9317 36.4857 31.7594 36.6083 31.6126 36.7717C31.4654 36.9352 31.3502 37.1379 31.2659 37.3805C31.1817 37.6231 31.1399 37.9025 31.1399 38.2181V39.9014Z" fill="black"/>
<path d="M37.3411 39.9015H36.6162L35.1586 37.9321L34.3313 38.7983V39.9015H33.7246V33.9363H34.3313V38.0547L36.5295 35.6768H37.2859L35.5762 37.4909L37.3411 39.9015Z" fill="black"/>
<path d="M38.5378 38.6308C38.622 38.808 38.7294 38.9577 38.8609 39.0802C38.9923 39.2028 39.1391 39.2952 39.3021 39.3581C39.4651 39.4209 39.6355 39.452 39.8142 39.452C40.0979 39.452 40.3406 39.3974 40.543 39.2886C40.7449 39.1798 40.9301 39.0353 41.0985 38.8555L41.4767 39.2069C41.2718 39.4464 41.0379 39.639 40.7755 39.783C40.513 39.9275 40.187 39.9995 39.7985 39.9995C39.5198 39.9995 39.2573 39.9464 39.0106 39.8402C38.7634 39.734 38.5477 39.5843 38.3625 39.3907C38.1774 39.1972 38.0306 38.9648 37.9213 38.6921C37.8125 38.4199 37.7578 38.1201 37.7578 37.7932C37.7578 37.4883 37.8061 37.2008 37.9036 36.9311C38.0006 36.6615 38.136 36.427 38.3093 36.2284C38.4827 36.0297 38.689 35.8729 38.9278 35.7585C39.1667 35.6441 39.4282 35.5869 39.7118 35.5869C40.0112 35.5869 40.2791 35.6456 40.5155 35.7626C40.7518 35.8796 40.9513 36.0394 41.1143 36.2406C41.2773 36.4424 41.4004 36.6793 41.4846 36.9516C41.5688 37.2238 41.6106 37.5154 41.6106 37.8259V37.9158C41.6106 37.9485 41.6082 37.9837 41.6028 38.022H38.3803C38.4014 38.2508 38.4536 38.4541 38.5378 38.6308ZM40.9882 37.5562C40.9724 37.3657 40.9345 37.1834 40.8744 37.0088C40.8144 36.8346 40.7307 36.6819 40.6238 36.5512C40.5164 36.4204 40.3859 36.3157 40.2323 36.2365C40.0782 36.1579 39.8994 36.1181 39.6955 36.1181C39.5183 36.1181 39.3538 36.1548 39.2021 36.2284C39.0505 36.3019 38.9175 36.403 38.8028 36.5307C38.688 36.6589 38.594 36.8101 38.5206 36.9842C38.4477 37.1589 38.4004 37.3494 38.3798 37.5562H40.9877H40.9882Z" fill="black"/>
<path d="M43.4943 38.7003C43.4943 38.9618 43.5573 39.1441 43.6834 39.2478C43.8094 39.3515 43.9749 39.4031 44.1798 39.4031C44.2846 39.4031 44.3831 39.3923 44.4752 39.3704C44.5673 39.3489 44.6658 39.3106 44.7707 39.256V39.7953C44.6658 39.855 44.554 39.9 44.4358 39.9301C44.3176 39.9603 44.1847 39.9751 44.0379 39.9751C43.8749 39.9751 43.7228 39.9531 43.581 39.9097C43.4391 39.8663 43.317 39.7968 43.2146 39.7013C43.1122 39.6058 43.0319 39.4822 42.9743 39.3295C42.9167 39.1773 42.8876 38.9945 42.8876 38.782V36.2325H42.3203V35.6769H42.8876V34.4021H43.4943V35.6769H44.7864V36.2325H43.4943V38.7003Z" fill="black"/>
</g>
<defs>
<linearGradient id="paint0_linear_1_5277" x1="29" y1="1.49951" x2="16.8818" y2="29.7496" gradientUnits="userSpaceOnUse">
<stop stop-color="#FF6107"/>
<stop offset="1" stop-color="#FFC700"/>
</linearGradient>
<clipPath id="clip0_1_5277">
<rect width="44.5714" height="40" fill="white" transform="translate(0.214844 -0.000488281)"/>
</clipPath>
</defs>
</svg>
