<svg width="46" height="50" viewBox="0 0 46 50" fill="none" xmlns="http://www.w3.org/2000/svg">
<g clip-path="url(#clip0_1_5134)">
<path d="M2.31361 48.1131H1.31515V49.8973H0V43.9495H2.44185C3.86823 43.9495 4.7306 44.7908 4.7306 46.0059V46.0228C4.7306 47.3994 3.65493 48.1131 2.31492 48.1131H2.31361ZM3.39844 46.0306C3.39844 45.4446 2.98885 45.1294 2.33062 45.1294H1.31515V46.9475H2.35679C3.01371 46.9475 3.39844 46.5568 3.39844 46.0463V46.0293V46.0306Z" fill="black"/>
<path d="M9.44409 49.8973V47.5101H7.01925V49.8973H5.7041V43.9495H7.01925V46.3028H9.44409V43.9495H10.7592V49.8973H9.44409Z" fill="black"/>
<path d="M12.2539 49.8973V43.9495H13.5691V49.8973H12.2539Z" fill="black"/>
<path d="M15.0635 49.8973V43.9495H16.3786V48.7083H19.3583V49.8973H15.0635Z" fill="black"/>
<path d="M24.0968 43.9312H24.6517L26.2914 48.9022L27.9991 43.9481H28.7083L26.574 49.9389H26.0021L24.3625 45.1124L22.7149 49.9389H22.1509L20.0166 43.9481H20.7507L22.4585 48.9022L24.0981 43.9312H24.0968Z" fill="black"/>
<path d="M30.1047 46.1112C29.8914 46.1711 29.682 46.2493 29.4766 46.3443L29.2803 45.8091C29.525 45.6958 29.7723 45.6072 30.0236 45.5408C30.2735 45.4757 30.5614 45.4431 30.8859 45.4431C31.4892 45.4431 31.9538 45.5916 32.2783 45.8898C32.6028 46.1868 32.7651 46.6283 32.7651 47.2117V49.8972H32.133V49.2343C31.9799 49.4322 31.7732 49.608 31.5141 49.7617C31.255 49.9141 30.9291 49.9909 30.5365 49.9909C30.3311 49.9909 30.1309 49.9623 29.9346 49.9063C29.7383 49.8503 29.5616 49.763 29.4046 49.6471C29.2476 49.5312 29.1232 49.3879 29.029 49.2173C28.9348 49.0467 28.8877 48.8462 28.8877 48.6143C28.8877 48.3825 28.9335 48.1768 29.0238 47.9983C29.1154 47.8199 29.2436 47.6714 29.4124 47.5516C29.5799 47.4331 29.7802 47.3419 30.0105 47.2794C30.2408 47.2169 30.496 47.1857 30.7747 47.1857C31.0534 47.1857 31.3073 47.2026 31.518 47.2365C31.7287 47.2703 31.9328 47.3159 32.133 47.3719V47.2195C32.133 46.8236 32.0179 46.5241 31.7876 46.3235C31.5572 46.1229 31.234 46.0214 30.8179 46.0214C30.5562 46.0214 30.318 46.0513 30.1047 46.1112ZM29.894 47.9176C29.6729 48.0817 29.5616 48.3057 29.5616 48.5896C29.5616 48.7316 29.5917 48.8553 29.6506 48.9634C29.7095 49.0715 29.7906 49.1626 29.8927 49.2395C29.9948 49.3163 30.1125 49.3736 30.246 49.414C30.3795 49.4531 30.5195 49.4739 30.6674 49.4739C30.8715 49.4739 31.0626 49.444 31.2419 49.384C31.4212 49.3241 31.5769 49.2421 31.7104 49.1379C31.8438 49.0337 31.9485 48.9087 32.0257 48.7641C32.1016 48.6196 32.1409 48.4594 32.1409 48.2836V47.859C31.976 47.8134 31.7876 47.7717 31.5743 47.7314C31.361 47.6923 31.1189 47.6714 30.8467 47.6714C30.4332 47.6714 30.1152 47.7535 29.894 47.9176Z" fill="black"/>
<path d="M34.2236 49.8972V43.6941H34.8806V49.8972H34.2236Z" fill="black"/>
<path d="M36.4707 49.8972V43.6941H37.1276V49.8972H36.4707Z" fill="black"/>
<path d="M39.2275 48.5766C39.3191 48.7602 39.4356 48.9165 39.5782 49.0441C39.7209 49.1718 39.8792 49.2681 40.0559 49.3333C40.2325 49.3984 40.417 49.4309 40.6107 49.4309C40.9182 49.4309 41.1813 49.3749 41.4011 49.2603C41.6197 49.147 41.8212 48.9972 42.0031 48.8097L42.4127 49.1757C42.1902 49.4244 41.9376 49.625 41.6524 49.7748C41.3671 49.9245 41.0151 50.0001 40.5937 50.0001C40.2914 50.0001 40.0075 49.9454 39.7392 49.8347C39.4722 49.724 39.238 49.569 39.0365 49.3671C38.8363 49.1666 38.6766 48.9243 38.5588 48.6404C38.4411 48.3578 38.3809 48.0452 38.3809 47.7053C38.3809 47.3875 38.4332 47.0893 38.5392 46.8093C38.6439 46.5293 38.7918 46.2857 38.9789 46.0787C39.1673 45.8716 39.3898 45.7088 39.6489 45.5903C39.908 45.4718 40.1907 45.4119 40.4982 45.4119C40.8227 45.4119 41.1132 45.4731 41.3697 45.5942C41.6262 45.7166 41.8421 45.882 42.0188 46.0917C42.1954 46.3014 42.3289 46.5475 42.4205 46.8314C42.5121 47.1153 42.5566 47.4175 42.5566 47.7405V47.8342C42.5566 47.8681 42.554 47.9046 42.5475 47.9449H39.0548C39.077 48.1833 39.1346 48.3943 39.2249 48.5779L39.2275 48.5766ZM41.8827 47.4592C41.8657 47.2612 41.8251 47.0711 41.7597 46.89C41.6942 46.709 41.6039 46.5501 41.4888 46.4147C41.3723 46.2792 41.231 46.1698 41.0648 46.0878C40.8973 46.0057 40.7036 45.9641 40.4838 45.9641C40.2914 45.9641 40.1135 46.0018 39.9486 46.0787C39.785 46.1555 39.6397 46.2597 39.5154 46.3925C39.3911 46.5254 39.289 46.683 39.2105 46.864C39.1307 47.045 39.0797 47.2443 39.0574 47.4592H41.884H41.8827Z" fill="black"/>
<path d="M44.5994 48.6483C44.5994 48.9205 44.6675 49.1106 44.8049 49.2174C44.941 49.3255 45.1216 49.3789 45.3427 49.3789C45.4566 49.3789 45.5639 49.3672 45.6633 49.3451C45.7628 49.3229 45.8701 49.2826 45.9839 49.2266V49.7879C45.8701 49.8504 45.7497 49.8973 45.6214 49.9285C45.4932 49.9598 45.3493 49.9754 45.1909 49.9754C45.0142 49.9754 44.8494 49.9533 44.6963 49.9077C44.5432 49.8621 44.4097 49.7905 44.2998 49.6915C44.1885 49.5925 44.1022 49.4636 44.0393 49.3047C43.9765 49.1458 43.9451 48.9557 43.9451 48.7356V46.084H43.3301V45.5057H43.9451V44.1799H44.602V45.5057H46.0022V46.084H44.602V48.6509L44.5994 48.6483Z" fill="black"/>
<path d="M24.4384 27.2201C20.3386 29.3221 20.0049 32.2367 19.6332 34.0796C19.2616 35.9237 18.8599 39.0884 18.8311 39.3749C18.8062 39.6237 18.7853 39.8959 18.7421 40.1563C18.6099 40.943 18.1545 41.4157 17.4204 41.4157C16.6863 41.4157 16.3199 40.9833 16.0974 40.2293C16.0359 40.0183 15.9796 39.8255 15.8985 39.5039C15.8173 39.1822 14.9092 35.5577 14.9092 35.5577C17.5617 28.6214 24.2709 27.2578 24.4371 27.2188L24.4384 27.2201Z" fill="#FFC21A"/>
<path d="M37.1662 18.118C37.1662 20.3242 35.6626 22.0954 33.646 22.9419C31.5771 23.8106 27.4223 26.0207 23.0647 27.7789C19.0368 29.4042 16.3319 31.8461 14.9121 35.5592L8.9082 11.6883C9.27069 12.7406 10.2718 13.4986 11.4508 13.4986C11.6131 13.4986 12.0659 13.5064 12.7306 13.1756L20.0143 9.73086C27.2195 6.3252 27.4629 6.21189 28.0125 5.94491C28.5791 5.70528 29.1915 5.54769 29.8406 5.52034C29.9741 5.4969 32.7706 5.24294 34.545 7.77342C37.8911 12.3838 37.1662 17.5124 37.1662 18.1193V18.118Z" fill="url(#paint0_linear_1_5134)"/>
<path d="M29.8407 5.51896C29.1916 5.54631 28.5792 5.7039 28.0125 5.94353L27.6134 6.13758L20.0144 9.72947L12.7307 13.1742C12.0659 13.505 11.6249 13.4972 11.4509 13.4972C10.2731 13.4972 9.27073 12.7405 8.90824 11.6869C8.88076 11.5515 8.76953 11.2923 8.76953 10.8378C8.76953 9.81283 9.34532 8.92592 10.1894 8.48312L22.0741 2.74755L22.9365 2.3321C23.5214 2.11982 24.143 2 24.8012 2C27.1214 2 29.0974 3.46775 29.8393 5.51896H29.8407Z" fill="#FFC21A"/>
<path d="M20.3049 13.9426L22.9915 21.7763C23.0229 21.8674 23.1407 21.8909 23.2048 21.8179L23.8081 21.1355C23.8643 21.0717 23.8827 20.9818 23.8552 20.9011L21.9629 15.3843C21.9106 15.2332 22.0428 15.0822 22.2011 15.1134L24.7032 15.6044C24.8615 15.6357 24.9256 15.8245 24.8196 15.9456L23.4011 17.5605C23.3514 17.6165 23.337 17.6947 23.3605 17.765L23.6144 18.5073C23.6262 18.5425 23.6471 18.5725 23.6746 18.5972C23.761 18.6727 23.8931 18.6636 23.969 18.5777L26.9003 15.2397C27.0063 15.1186 26.9409 14.9298 26.7838 14.8985L20.5418 13.6743C20.3835 13.6431 20.2513 13.7941 20.3036 13.9452L20.3049 13.9426Z" fill="white"/>
<path d="M26.5046 18.4423C26.3882 18.4188 26.3411 18.2795 26.4183 18.1909L27.4351 17.0318C27.5201 16.9354 27.5463 16.8 27.5044 16.6789L27.3186 16.1358C27.2545 15.947 27.0085 15.8988 26.8776 16.0498L24.5129 18.7418C24.3808 18.8916 24.4619 19.1273 24.6582 19.1651L28.1823 19.8566C28.3786 19.8957 28.5434 19.7082 28.478 19.5193L28.2922 18.9762C28.2503 18.8551 28.1469 18.764 28.02 18.7392L26.5033 18.441L26.5046 18.4423Z" fill="white"/>
<path d="M25.0109 21.1759C25.4575 21.1759 25.8196 20.8155 25.8196 20.371C25.8196 19.9265 25.4575 19.5662 25.0109 19.5662C24.5642 19.5662 24.2021 19.9265 24.2021 20.371C24.2021 20.8155 24.5642 21.1759 25.0109 21.1759Z" fill="white"/>
</g>
<defs>
<linearGradient id="paint0_linear_1_5134" x1="9.54288" y1="37.975" x2="30.8882" y2="2.17828" gradientUnits="userSpaceOnUse">
<stop stop-color="#FF9F1D"/>
<stop offset="0.25" stop-color="#FC8B1D"/>
<stop offset="0.55" stop-color="#F97A1D"/>
<stop offset="0.77" stop-color="#F9751D"/>
<stop offset="1" stop-color="#F5451C"/>
</linearGradient>
<clipPath id="clip0_1_5134">
<rect width="46" height="50" fill="white"/>
</clipPath>
</defs>
</svg>
