<svg width="177" height="177" viewBox="0 0 177 177" fill="none" xmlns="http://www.w3.org/2000/svg">
<path opacity="0.074" d="M88.015 176.32C136.624 176.32 176.03 136.853 176.03 88.1689C176.03 39.4845 136.624 0.0180664 88.015 0.0180664C39.4057 0.0180664 0 39.4845 0 88.1689C0 136.853 39.4057 176.32 88.015 176.32Z" fill="url(#paint0_linear_1_2554)"/>
<path opacity="0.256" d="M88.0157 163.727C129.681 163.727 163.457 129.898 163.457 88.1689C163.457 46.4395 129.681 12.6111 88.0157 12.6111C46.3505 12.6111 12.5742 46.4395 12.5742 88.1689C12.5742 129.898 46.3505 163.727 88.0157 163.727Z" fill="url(#paint1_linear_1_2554)"/>
<path d="M88.0144 151.134C122.735 151.134 150.882 122.944 150.882 88.169C150.882 53.3944 122.735 25.2041 88.0144 25.2041C53.2934 25.2041 25.1465 53.3944 25.1465 88.169C25.1465 122.944 53.2934 151.134 88.0144 151.134Z" fill="url(#paint2_linear_1_2554)"/>
<path d="M104.973 71.1852C104.679 70.8902 104.307 70.6848 103.901 70.5929C103.494 70.5011 103.07 70.5266 102.678 70.6664L71.8729 81.6853C71.4668 81.8301 71.1121 82.0913 70.8531 82.4364C70.5941 82.7815 70.4421 83.1953 70.4161 83.6263C70.3901 84.0573 70.4912 84.4864 70.7069 84.8602C70.9225 85.2341 71.2432 85.5362 71.629 85.7289L81.7205 90.7799L94.616 81.5581L85.4021 94.4772L90.4453 104.583C90.629 104.949 90.9105 105.256 91.2583 105.471C91.6062 105.686 92.0068 105.8 92.4156 105.801C92.4621 105.801 92.5061 105.801 92.5502 105.801C92.9807 105.775 93.3942 105.623 93.7391 105.364C94.0841 105.105 94.3453 104.749 94.4903 104.343L105.492 73.4898C105.632 73.0958 105.658 72.6701 105.566 72.2621C105.474 71.8542 105.268 71.4807 104.973 71.1852Z" fill="white"/>
<defs>
<linearGradient id="paint0_linear_1_2554" x1="88.015" y1="0.0180664" x2="88.015" y2="176.32" gradientUnits="userSpaceOnUse">
<stop stop-color="#DF2908"/>
<stop offset="1" stop-color="#F58600"/>
</linearGradient>
<linearGradient id="paint1_linear_1_2554" x1="88.0157" y1="12.6111" x2="88.0157" y2="163.727" gradientUnits="userSpaceOnUse">
<stop stop-color="#DF2908"/>
<stop offset="1" stop-color="#F58600"/>
</linearGradient>
<linearGradient id="paint2_linear_1_2554" x1="88.0144" y1="25.2041" x2="88.0144" y2="151.134" gradientUnits="userSpaceOnUse">
<stop stop-color="#DF2908"/>
<stop offset="1" stop-color="#F58600"/>
</linearGradient>
</defs>
</svg>
